<?xml version="1.0" standalone="no"?>
<!DOCTYPE svg PUBLIC "-//W3C//DTD SVG 20010904//EN"
 "http://www.w3.org/TR/2001/REC-SVG-20010904/DTD/svg10.dtd">
<svg version="1.0" xmlns="http://www.w3.org/2000/svg"
 width="400.000000pt" height="400.000000pt" viewBox="0 0 400.000000 400.000000"
 preserveAspectRatio="xMidYMid meet">
<metadata>
Created by potrace 1.11, written by Peter Selinger 2001-2013
</metadata>
<g transform="translate(0.000000,400.000000) scale(0.100000,-0.100000)"
fill="#000000" stroke="none">
<path d="M0 3960 l0 -40 40 0 40 0 0 40 0 40 -40 0 -40 0 0 -40z"/>
<path d="M90 3960 l0 -40 40 0 40 0 0 40 0 40 -40 0 -40 0 0 -40z"/>
<path d="M180 3960 l0 -40 75 0 75 0 0 40 0 40 -75 0 -75 0 0 -40z"/>
<path d="M340 3960 l0 -40 40 0 40 0 0 40 0 40 -40 0 -40 0 0 -40z"/>
<path d="M430 3960 l0 -40 75 0 75 0 0 40 0 40 -75 0 -75 0 0 -40z"/>
<path d="M590 3960 l0 -40 40 0 40 0 0 40 0 40 -40 0 -40 0 0 -40z"/>
<path d="M680 3960 l0 -40 75 0 75 0 0 40 0 40 -75 0 -75 0 0 -40z"/>
<path d="M840 3960 l0 -40 40 0 40 0 0 40 0 40 -40 0 -40 0 0 -40z"/>
<path d="M930 3960 l0 -40 75 0 75 0 0 40 0 40 -75 0 -75 0 0 -40z"/>
<path d="M1090 3960 l0 -40 40 0 40 0 0 40 0 40 -40 0 -40 0 0 -40z"/>
<path d="M1180 3960 l0 -40 75 0 75 0 0 40 0 40 -75 0 -75 0 0 -40z"/>
<path d="M1340 3960 l0 -40 40 0 40 0 0 40 0 40 -40 0 -40 0 0 -40z"/>
<path d="M1430 3960 l0 -40 75 0 75 0 0 40 0 40 -75 0 -75 0 0 -40z"/>
<path d="M1590 3960 l0 -40 40 0 40 0 0 40 0 40 -40 0 -40 0 0 -40z"/>
<path d="M1680 3960 l0 -40 75 0 75 0 0 40 0 40 -75 0 -75 0 0 -40z"/>
<path d="M1840 3960 l0 -40 40 0 40 0 0 40 0 40 -40 0 -40 0 0 -40z"/>
<path d="M1930 3960 l0 -40 75 0 75 0 0 40 0 40 -75 0 -75 0 0 -40z"/>
<path d="M2090 3960 l0 -40 40 0 40 0 0 40 0 40 -40 0 -40 0 0 -40z"/>
<path d="M2180 3960 l0 -40 75 0 75 0 0 40 0 40 -75 0 -75 0 0 -40z"/>
<path d="M2340 3960 l0 -40 40 0 40 0 0 40 0 40 -40 0 -40 0 0 -40z"/>
<path d="M2430 3960 l0 -40 75 0 75 0 0 40 0 40 -75 0 -75 0 0 -40z"/>
<path d="M2590 3960 l0 -40 40 0 40 0 0 40 0 40 -40 0 -40 0 0 -40z"/>
<path d="M2680 3960 l0 -40 75 0 75 0 0 40 0 40 -75 0 -75 0 0 -40z"/>
<path d="M2840 3960 l0 -40 40 0 40 0 0 40 0 40 -40 0 -40 0 0 -40z"/>
<path d="M2930 3960 l0 -40 75 0 75 0 0 40 0 40 -75 0 -75 0 0 -40z"/>
<path d="M3090 3960 l0 -40 40 0 40 0 0 40 0 40 -40 0 -40 0 0 -40z"/>
<path d="M3180 3960 l0 -40 75 0 75 0 0 40 0 40 -75 0 -75 0 0 -40z"/>
<path d="M3340 3960 l0 -40 40 0 40 0 0 40 0 40 -40 0 -40 0 0 -40z"/>
<path d="M3430 3960 l0 -40 75 0 75 0 0 40 0 40 -75 0 -75 0 0 -40z"/>
<path d="M3590 3960 l0 -40 40 0 40 0 0 40 0 40 -40 0 -40 0 0 -40z"/>
<path d="M3680 3960 l0 -40 75 0 75 0 0 40 0 40 -75 0 -75 0 0 -40z"/>
<path d="M3840 3960 l0 -40 40 0 40 0 0 40 0 40 -40 0 -40 0 0 -40z"/>
<path d="M3930 3960 c0 -39 1 -40 35 -40 34 0 35 1 35 40 0 39 -1 40 -35 40
-34 0 -35 -1 -35 -40z"/>
<path d="M0 3870 l0 -40 40 0 40 0 0 40 0 40 -40 0 -40 0 0 -40z"/>
<path d="M90 3870 l0 -40 40 0 40 0 0 40 0 40 -40 0 -40 0 0 -40z"/>
<path d="M180 3870 l0 -40 75 0 75 0 0 40 0 40 -75 0 -75 0 0 -40z"/>
<path d="M340 3870 l0 -40 40 0 40 0 0 40 0 40 -40 0 -40 0 0 -40z"/>
<path d="M430 3870 l0 -40 75 0 75 0 0 40 0 40 -75 0 -75 0 0 -40z"/>
<path d="M590 3870 l0 -40 40 0 40 0 0 40 0 40 -40 0 -40 0 0 -40z"/>
<path d="M680 3870 l0 -40 75 0 75 0 0 40 0 40 -75 0 -75 0 0 -40z"/>
<path d="M840 3870 l0 -40 40 0 40 0 0 40 0 40 -40 0 -40 0 0 -40z"/>
<path d="M930 3870 l0 -40 75 0 75 0 0 40 0 40 -75 0 -75 0 0 -40z"/>
<path d="M1090 3870 l0 -40 40 0 40 0 0 40 0 40 -40 0 -40 0 0 -40z"/>
<path d="M1180 3870 l0 -40 75 0 75 0 0 40 0 40 -75 0 -75 0 0 -40z"/>
<path d="M1340 3870 l0 -40 40 0 40 0 0 40 0 40 -40 0 -40 0 0 -40z"/>
<path d="M1430 3870 l0 -40 75 0 75 0 0 40 0 40 -75 0 -75 0 0 -40z"/>
<path d="M1590 3870 l0 -40 40 0 40 0 0 40 0 40 -40 0 -40 0 0 -40z"/>
<path d="M1680 3870 l0 -40 75 0 75 0 0 40 0 40 -75 0 -75 0 0 -40z"/>
<path d="M1840 3870 l0 -40 40 0 40 0 0 40 0 40 -40 0 -40 0 0 -40z"/>
<path d="M1930 3870 l0 -40 75 0 75 0 0 40 0 40 -75 0 -75 0 0 -40z"/>
<path d="M2090 3870 l0 -40 40 0 40 0 0 40 0 40 -40 0 -40 0 0 -40z"/>
<path d="M2180 3870 l0 -40 75 0 75 0 0 40 0 40 -75 0 -75 0 0 -40z"/>
<path d="M2340 3870 l0 -40 40 0 40 0 0 40 0 40 -40 0 -40 0 0 -40z"/>
<path d="M2430 3870 l0 -40 75 0 75 0 0 40 0 40 -75 0 -75 0 0 -40z"/>
<path d="M2590 3870 l0 -40 40 0 40 0 0 40 0 40 -40 0 -40 0 0 -40z"/>
<path d="M2680 3870 l0 -40 75 0 75 0 0 40 0 40 -75 0 -75 0 0 -40z"/>
<path d="M2840 3870 l0 -40 40 0 40 0 0 40 0 40 -40 0 -40 0 0 -40z"/>
<path d="M2930 3870 l0 -40 75 0 75 0 0 40 0 40 -75 0 -75 0 0 -40z"/>
<path d="M3090 3870 l0 -40 40 0 40 0 0 40 0 40 -40 0 -40 0 0 -40z"/>
<path d="M3180 3870 l0 -40 75 0 75 0 0 40 0 40 -75 0 -75 0 0 -40z"/>
<path d="M3340 3870 l0 -40 40 0 40 0 0 40 0 40 -40 0 -40 0 0 -40z"/>
<path d="M3430 3870 l0 -40 75 0 75 0 0 40 0 40 -75 0 -75 0 0 -40z"/>
<path d="M3590 3870 l0 -40 40 0 40 0 0 40 0 40 -40 0 -40 0 0 -40z"/>
<path d="M3680 3870 l0 -40 75 0 75 0 0 40 0 40 -75 0 -75 0 0 -40z"/>
<path d="M3840 3870 l0 -40 40 0 40 0 0 40 0 40 -40 0 -40 0 0 -40z"/>
<path d="M3930 3870 c0 -39 1 -40 35 -40 34 0 35 1 35 40 0 39 -1 40 -35 40
-34 0 -35 -1 -35 -40z"/>
<path d="M0 3745 l0 -75 40 0 40 0 0 75 0 75 -40 0 -40 0 0 -75z"/>
<path d="M90 3745 l0 -75 40 0 40 0 0 75 0 75 -40 0 -40 0 0 -75z"/>
<path d="M180 3745 l0 -75 75 0 75 0 0 75 0 75 -75 0 -75 0 0 -75z"/>
<path d="M340 3745 l0 -75 40 0 40 0 0 75 0 75 -40 0 -40 0 0 -75z"/>
<path d="M430 3745 l0 -75 75 0 75 0 0 75 0 75 -75 0 -75 0 0 -75z"/>
<path d="M590 3745 l0 -75 40 0 40 0 0 75 0 75 -40 0 -40 0 0 -75z"/>
<path d="M680 3745 l0 -75 75 0 75 0 0 75 0 75 -75 0 -75 0 0 -75z"/>
<path d="M840 3745 l0 -75 40 0 40 0 0 75 0 75 -40 0 -40 0 0 -75z"/>
<path d="M930 3745 l0 -75 75 0 75 0 0 75 0 75 -75 0 -75 0 0 -75z"/>
<path d="M1090 3745 l0 -75 40 0 40 0 0 75 0 75 -40 0 -40 0 0 -75z"/>
<path d="M1180 3745 l0 -75 75 0 75 0 0 75 0 75 -75 0 -75 0 0 -75z"/>
<path d="M1340 3745 l0 -75 40 0 40 0 0 75 0 75 -40 0 -40 0 0 -75z"/>
<path d="M1430 3745 l0 -75 75 0 75 0 0 75 0 75 -75 0 -75 0 0 -75z"/>
<path d="M1590 3745 l0 -75 40 0 40 0 0 75 0 75 -40 0 -40 0 0 -75z"/>
<path d="M1680 3745 l0 -75 75 0 75 0 0 75 0 75 -75 0 -75 0 0 -75z"/>
<path d="M1840 3745 l0 -75 40 0 40 0 0 75 0 75 -40 0 -40 0 0 -75z"/>
<path d="M1930 3745 l0 -75 75 0 75 0 0 75 0 75 -75 0 -75 0 0 -75z"/>
<path d="M2090 3745 l0 -75 40 0 40 0 0 75 0 75 -40 0 -40 0 0 -75z"/>
<path d="M2180 3745 l0 -75 75 0 75 0 0 75 0 75 -75 0 -75 0 0 -75z"/>
<path d="M2340 3745 l0 -75 40 0 40 0 0 75 0 75 -40 0 -40 0 0 -75z"/>
<path d="M2430 3745 l0 -75 75 0 75 0 0 75 0 75 -75 0 -75 0 0 -75z"/>
<path d="M2590 3745 l0 -75 40 0 40 0 0 75 0 75 -40 0 -40 0 0 -75z"/>
<path d="M2680 3745 l0 -75 75 0 75 0 0 75 0 75 -75 0 -75 0 0 -75z"/>
<path d="M2840 3745 l0 -75 40 0 40 0 0 75 0 75 -40 0 -40 0 0 -75z"/>
<path d="M2930 3745 l0 -75 75 0 75 0 0 75 0 75 -75 0 -75 0 0 -75z"/>
<path d="M3090 3745 l0 -75 40 0 40 0 0 75 0 75 -40 0 -40 0 0 -75z"/>
<path d="M3180 3745 l0 -75 75 0 75 0 0 75 0 75 -75 0 -75 0 0 -75z"/>
<path d="M3340 3745 l0 -75 40 0 40 0 0 75 0 75 -40 0 -40 0 0 -75z"/>
<path d="M3430 3745 l0 -75 75 0 75 0 0 75 0 75 -75 0 -75 0 0 -75z"/>
<path d="M3590 3745 l0 -75 40 0 40 0 0 75 0 75 -40 0 -40 0 0 -75z"/>
<path d="M3680 3745 l0 -75 75 0 75 0 0 75 0 75 -75 0 -75 0 0 -75z"/>
<path d="M3840 3745 l0 -75 40 0 40 0 0 75 0 75 -40 0 -40 0 0 -75z"/>
<path d="M3930 3745 l0 -75 35 0 35 0 0 75 0 75 -35 0 -35 0 0 -75z"/>
<path d="M0 3620 l0 -40 40 0 40 0 0 40 0 40 -40 0 -40 0 0 -40z"/>
<path d="M90 3620 l0 -40 40 0 40 0 0 40 0 40 -40 0 -40 0 0 -40z"/>
<path d="M180 3620 l0 -40 75 0 75 0 0 40 0 40 -75 0 -75 0 0 -40z"/>
<path d="M340 3620 l0 -40 40 0 40 0 0 40 0 40 -40 0 -40 0 0 -40z"/>
<path d="M430 3620 l0 -40 75 0 75 0 0 40 0 40 -75 0 -75 0 0 -40z"/>
<path d="M590 3620 l0 -40 40 0 40 0 0 40 0 40 -40 0 -40 0 0 -40z"/>
<path d="M680 3620 l0 -40 75 0 75 0 0 40 0 40 -75 0 -75 0 0 -40z"/>
<path d="M840 3620 l0 -40 40 0 40 0 0 40 0 40 -40 0 -40 0 0 -40z"/>
<path d="M930 3620 l0 -40 75 0 75 0 0 40 0 40 -75 0 -75 0 0 -40z"/>
<path d="M1090 3620 l0 -40 40 0 40 0 0 40 0 40 -40 0 -40 0 0 -40z"/>
<path d="M1180 3620 l0 -40 75 0 75 0 0 40 0 40 -75 0 -75 0 0 -40z"/>
<path d="M1340 3620 l0 -40 40 0 40 0 0 40 0 40 -40 0 -40 0 0 -40z"/>
<path d="M1430 3620 l0 -40 75 0 75 0 0 40 0 40 -75 0 -75 0 0 -40z"/>
<path d="M1590 3620 l0 -40 40 0 40 0 0 40 0 40 -40 0 -40 0 0 -40z"/>
<path d="M1680 3620 l0 -40 75 0 75 0 0 40 0 40 -75 0 -75 0 0 -40z"/>
<path d="M1840 3620 l0 -40 40 0 40 0 0 40 0 40 -40 0 -40 0 0 -40z"/>
<path d="M1930 3620 l0 -40 75 0 75 0 0 40 0 40 -75 0 -75 0 0 -40z"/>
<path d="M2090 3620 l0 -40 40 0 40 0 0 40 0 40 -40 0 -40 0 0 -40z"/>
<path d="M2180 3620 l0 -40 75 0 75 0 0 40 0 40 -75 0 -75 0 0 -40z"/>
<path d="M2340 3620 l0 -40 40 0 40 0 0 40 0 40 -40 0 -40 0 0 -40z"/>
<path d="M2430 3620 l0 -40 75 0 75 0 0 40 0 40 -75 0 -75 0 0 -40z"/>
<path d="M2590 3620 l0 -40 40 0 40 0 0 40 0 40 -40 0 -40 0 0 -40z"/>
<path d="M2680 3620 l0 -40 75 0 75 0 0 40 0 40 -75 0 -75 0 0 -40z"/>
<path d="M2840 3620 l0 -40 40 0 40 0 0 40 0 40 -40 0 -40 0 0 -40z"/>
<path d="M2930 3620 l0 -40 75 0 75 0 0 40 0 40 -75 0 -75 0 0 -40z"/>
<path d="M3090 3620 l0 -40 40 0 40 0 0 40 0 40 -40 0 -40 0 0 -40z"/>
<path d="M3180 3620 l0 -40 75 0 75 0 0 40 0 40 -75 0 -75 0 0 -40z"/>
<path d="M3340 3620 l0 -40 40 0 40 0 0 40 0 40 -40 0 -40 0 0 -40z"/>
<path d="M3430 3620 l0 -40 75 0 75 0 0 40 0 40 -75 0 -75 0 0 -40z"/>
<path d="M3590 3620 l0 -40 40 0 40 0 0 40 0 40 -40 0 -40 0 0 -40z"/>
<path d="M3680 3620 l0 -40 75 0 75 0 0 40 0 40 -75 0 -75 0 0 -40z"/>
<path d="M3840 3620 l0 -40 40 0 40 0 0 40 0 40 -40 0 -40 0 0 -40z"/>
<path d="M3930 3620 c0 -39 1 -40 35 -40 34 0 35 1 35 40 0 39 -1 40 -35 40
-34 0 -35 -1 -35 -40z"/>
<path d="M0 3495 l0 -75 40 0 40 0 0 75 0 75 -40 0 -40 0 0 -75z"/>
<path d="M90 3495 l0 -75 40 0 40 0 0 75 0 75 -40 0 -40 0 0 -75z"/>
<path d="M180 3495 l0 -75 75 0 75 0 0 75 0 75 -75 0 -75 0 0 -75z"/>
<path d="M340 3495 l0 -75 40 0 40 0 0 75 0 75 -40 0 -40 0 0 -75z"/>
<path d="M430 3495 l0 -75 75 0 75 0 0 75 0 75 -75 0 -75 0 0 -75z"/>
<path d="M590 3495 l0 -75 40 0 40 0 0 75 0 75 -40 0 -40 0 0 -75z"/>
<path d="M680 3495 l0 -75 75 0 75 0 0 75 0 75 -75 0 -75 0 0 -75z"/>
<path d="M840 3495 l0 -75 40 0 40 0 0 75 0 75 -40 0 -40 0 0 -75z"/>
<path d="M930 3495 l0 -75 75 0 75 0 0 75 0 75 -75 0 -75 0 0 -75z"/>
<path d="M1090 3495 l0 -75 40 0 40 0 0 75 0 75 -40 0 -40 0 0 -75z"/>
<path d="M1180 3495 l0 -75 75 0 75 0 0 75 0 75 -75 0 -75 0 0 -75z"/>
<path d="M1340 3495 l0 -75 40 0 40 0 0 75 0 75 -40 0 -40 0 0 -75z"/>
<path d="M1430 3495 l0 -75 75 0 75 0 0 75 0 75 -75 0 -75 0 0 -75z"/>
<path d="M1590 3495 l0 -75 40 0 40 0 0 75 0 75 -40 0 -40 0 0 -75z"/>
<path d="M1680 3495 l0 -75 75 0 75 0 0 75 0 75 -75 0 -75 0 0 -75z"/>
<path d="M1840 3495 l0 -75 40 0 40 0 0 75 0 75 -40 0 -40 0 0 -75z"/>
<path d="M1930 3495 l0 -75 75 0 75 0 0 75 0 75 -75 0 -75 0 0 -75z"/>
<path d="M2090 3495 l0 -75 40 0 40 0 0 75 0 75 -40 0 -40 0 0 -75z"/>
<path d="M2180 3495 l0 -75 75 0 75 0 0 75 0 75 -75 0 -75 0 0 -75z"/>
<path d="M2340 3495 l0 -75 40 0 40 0 0 75 0 75 -40 0 -40 0 0 -75z"/>
<path d="M2430 3495 l0 -75 75 0 75 0 0 75 0 75 -75 0 -75 0 0 -75z"/>
<path d="M2590 3495 l0 -75 40 0 40 0 0 75 0 75 -40 0 -40 0 0 -75z"/>
<path d="M2680 3495 l0 -75 75 0 75 0 0 75 0 75 -75 0 -75 0 0 -75z"/>
<path d="M2840 3495 l0 -75 40 0 40 0 0 75 0 75 -40 0 -40 0 0 -75z"/>
<path d="M2930 3495 l0 -75 75 0 75 0 0 75 0 75 -75 0 -75 0 0 -75z"/>
<path d="M3090 3495 l0 -75 40 0 40 0 0 75 0 75 -40 0 -40 0 0 -75z"/>
<path d="M3180 3495 l0 -75 75 0 75 0 0 75 0 75 -75 0 -75 0 0 -75z"/>
<path d="M3340 3495 l0 -75 40 0 40 0 0 75 0 75 -40 0 -40 0 0 -75z"/>
<path d="M3430 3495 l0 -75 75 0 75 0 0 75 0 75 -75 0 -75 0 0 -75z"/>
<path d="M3590 3495 l0 -75 40 0 40 0 0 75 0 75 -40 0 -40 0 0 -75z"/>
<path d="M3680 3495 l0 -75 75 0 75 0 0 75 0 75 -75 0 -75 0 0 -75z"/>
<path d="M3840 3495 l0 -75 40 0 40 0 0 75 0 75 -40 0 -40 0 0 -75z"/>
<path d="M3930 3495 l0 -75 35 0 35 0 0 75 0 75 -35 0 -35 0 0 -75z"/>
<path d="M0 3370 l0 -40 40 0 40 0 0 40 0 40 -40 0 -40 0 0 -40z"/>
<path d="M90 3370 l0 -40 40 0 40 0 0 40 0 40 -40 0 -40 0 0 -40z"/>
<path d="M180 3370 l0 -40 75 0 75 0 0 40 0 40 -75 0 -75 0 0 -40z"/>
<path d="M340 3370 l0 -40 40 0 40 0 0 40 0 40 -40 0 -40 0 0 -40z"/>
<path d="M430 3370 l0 -40 75 0 75 0 0 40 0 40 -75 0 -75 0 0 -40z"/>
<path d="M590 3370 l0 -40 40 0 40 0 0 40 0 40 -40 0 -40 0 0 -40z"/>
<path d="M680 3370 l0 -40 75 0 75 0 0 40 0 40 -75 0 -75 0 0 -40z"/>
<path d="M840 3370 l0 -40 40 0 40 0 0 40 0 40 -40 0 -40 0 0 -40z"/>
<path d="M930 3370 l0 -40 75 0 75 0 0 40 0 40 -75 0 -75 0 0 -40z"/>
<path d="M1090 3370 l0 -40 40 0 40 0 0 40 0 40 -40 0 -40 0 0 -40z"/>
<path d="M1180 3370 l0 -40 75 0 75 0 0 40 0 40 -75 0 -75 0 0 -40z"/>
<path d="M1340 3370 l0 -40 40 0 40 0 0 40 0 40 -40 0 -40 0 0 -40z"/>
<path d="M1430 3370 l0 -40 75 0 75 0 0 40 0 40 -75 0 -75 0 0 -40z"/>
<path d="M1590 3370 l0 -40 40 0 40 0 0 40 0 40 -40 0 -40 0 0 -40z"/>
<path d="M1680 3370 l0 -40 75 0 75 0 0 40 0 40 -75 0 -75 0 0 -40z"/>
<path d="M1840 3370 l0 -40 40 0 40 0 0 40 0 40 -40 0 -40 0 0 -40z"/>
<path d="M1930 3370 l0 -40 75 0 75 0 0 40 0 40 -75 0 -75 0 0 -40z"/>
<path d="M2090 3370 l0 -40 40 0 40 0 0 40 0 40 -40 0 -40 0 0 -40z"/>
<path d="M2180 3370 l0 -40 75 0 75 0 0 40 0 40 -75 0 -75 0 0 -40z"/>
<path d="M2340 3370 l0 -40 40 0 40 0 0 40 0 40 -40 0 -40 0 0 -40z"/>
<path d="M2430 3370 l0 -40 75 0 75 0 0 40 0 40 -75 0 -75 0 0 -40z"/>
<path d="M2590 3370 l0 -40 40 0 40 0 0 40 0 40 -40 0 -40 0 0 -40z"/>
<path d="M2680 3370 l0 -40 75 0 75 0 0 40 0 40 -75 0 -75 0 0 -40z"/>
<path d="M2840 3370 l0 -40 40 0 40 0 0 40 0 40 -40 0 -40 0 0 -40z"/>
<path d="M2930 3370 l0 -40 75 0 75 0 0 40 0 40 -75 0 -75 0 0 -40z"/>
<path d="M3090 3370 l0 -40 40 0 40 0 0 40 0 40 -40 0 -40 0 0 -40z"/>
<path d="M3180 3370 l0 -40 75 0 75 0 0 40 0 40 -75 0 -75 0 0 -40z"/>
<path d="M3340 3370 l0 -40 40 0 40 0 0 40 0 40 -40 0 -40 0 0 -40z"/>
<path d="M3430 3370 l0 -40 75 0 75 0 0 40 0 40 -75 0 -75 0 0 -40z"/>
<path d="M3590 3370 l0 -40 40 0 40 0 0 40 0 40 -40 0 -40 0 0 -40z"/>
<path d="M3680 3370 l0 -40 75 0 75 0 0 40 0 40 -75 0 -75 0 0 -40z"/>
<path d="M3840 3370 l0 -40 40 0 40 0 0 40 0 40 -40 0 -40 0 0 -40z"/>
<path d="M3930 3370 c0 -39 1 -40 35 -40 34 0 35 1 35 40 0 39 -1 40 -35 40
-34 0 -35 -1 -35 -40z"/>
<path d="M0 3245 l0 -75 40 0 40 0 0 75 0 75 -40 0 -40 0 0 -75z"/>
<path d="M90 3245 l0 -75 40 0 40 0 0 75 0 75 -40 0 -40 0 0 -75z"/>
<path d="M180 3245 l0 -75 75 0 75 0 0 75 0 75 -75 0 -75 0 0 -75z"/>
<path d="M340 3245 l0 -75 40 0 40 0 0 75 0 75 -40 0 -40 0 0 -75z"/>
<path d="M430 3245 l0 -75 75 0 75 0 0 75 0 75 -75 0 -75 0 0 -75z"/>
<path d="M590 3245 l0 -75 40 0 40 0 0 75 0 75 -40 0 -40 0 0 -75z"/>
<path d="M680 3245 l0 -75 75 0 75 0 0 75 0 75 -75 0 -75 0 0 -75z"/>
<path d="M840 3245 l0 -75 40 0 40 0 0 75 0 75 -40 0 -40 0 0 -75z"/>
<path d="M930 3245 l0 -75 75 0 75 0 0 75 0 75 -75 0 -75 0 0 -75z"/>
<path d="M1090 3245 l0 -75 40 0 40 0 0 75 0 75 -40 0 -40 0 0 -75z"/>
<path d="M1180 3245 l0 -75 75 0 75 0 0 75 0 75 -75 0 -75 0 0 -75z"/>
<path d="M1340 3245 l0 -75 40 0 40 0 0 75 0 75 -40 0 -40 0 0 -75z"/>
<path d="M1430 3245 l0 -75 75 0 75 0 0 75 0 75 -75 0 -75 0 0 -75z"/>
<path d="M1590 3245 l0 -75 40 0 40 0 0 75 0 75 -40 0 -40 0 0 -75z"/>
<path d="M1680 3245 l0 -75 75 0 75 0 0 75 0 75 -75 0 -75 0 0 -75z"/>
<path d="M1840 3245 l0 -75 40 0 40 0 0 75 0 75 -40 0 -40 0 0 -75z"/>
<path d="M1930 3245 l0 -75 75 0 75 0 0 75 0 75 -75 0 -75 0 0 -75z"/>
<path d="M2090 3245 l0 -75 40 0 40 0 0 75 0 75 -40 0 -40 0 0 -75z"/>
<path d="M2180 3245 l0 -75 75 0 75 0 0 75 0 75 -75 0 -75 0 0 -75z"/>
<path d="M2340 3245 l0 -75 40 0 40 0 0 75 0 75 -40 0 -40 0 0 -75z"/>
<path d="M2430 3245 l0 -75 75 0 75 0 0 75 0 75 -75 0 -75 0 0 -75z"/>
<path d="M2590 3245 l0 -75 40 0 40 0 0 75 0 75 -40 0 -40 0 0 -75z"/>
<path d="M2680 3245 l0 -75 75 0 75 0 0 75 0 75 -75 0 -75 0 0 -75z"/>
<path d="M2840 3245 l0 -75 40 0 40 0 0 75 0 75 -40 0 -40 0 0 -75z"/>
<path d="M2930 3245 l0 -75 75 0 75 0 0 75 0 75 -75 0 -75 0 0 -75z"/>
<path d="M3090 3245 l0 -75 40 0 40 0 0 75 0 75 -40 0 -40 0 0 -75z"/>
<path d="M3180 3245 l0 -75 75 0 75 0 0 75 0 75 -75 0 -75 0 0 -75z"/>
<path d="M3340 3245 l0 -75 40 0 40 0 0 75 0 75 -40 0 -40 0 0 -75z"/>
<path d="M3430 3245 l0 -75 75 0 75 0 0 75 0 75 -75 0 -75 0 0 -75z"/>
<path d="M3590 3245 l0 -75 40 0 40 0 0 75 0 75 -40 0 -40 0 0 -75z"/>
<path d="M3680 3245 l0 -75 75 0 75 0 0 75 0 75 -75 0 -75 0 0 -75z"/>
<path d="M3840 3245 l0 -75 40 0 40 0 0 75 0 75 -40 0 -40 0 0 -75z"/>
<path d="M3930 3245 l0 -75 35 0 35 0 0 75 0 75 -35 0 -35 0 0 -75z"/>
<path d="M0 3120 l0 -40 40 0 40 0 0 40 0 40 -40 0 -40 0 0 -40z"/>
<path d="M90 3120 l0 -40 40 0 40 0 0 40 0 40 -40 0 -40 0 0 -40z"/>
<path d="M180 3120 l0 -40 75 0 75 0 0 40 0 40 -75 0 -75 0 0 -40z"/>
<path d="M340 3120 l0 -40 40 0 40 0 0 40 0 40 -40 0 -40 0 0 -40z"/>
<path d="M430 3120 l0 -40 75 0 75 0 0 40 0 40 -75 0 -75 0 0 -40z"/>
<path d="M590 3120 l0 -40 40 0 40 0 0 40 0 40 -40 0 -40 0 0 -40z"/>
<path d="M680 3120 l0 -40 75 0 75 0 0 40 0 40 -75 0 -75 0 0 -40z"/>
<path d="M840 3120 l0 -40 40 0 40 0 0 40 0 40 -40 0 -40 0 0 -40z"/>
<path d="M930 3120 l0 -40 75 0 75 0 0 40 0 40 -75 0 -75 0 0 -40z"/>
<path d="M1090 3120 l0 -40 40 0 40 0 0 40 0 40 -40 0 -40 0 0 -40z"/>
<path d="M1180 3120 l0 -40 75 0 75 0 0 40 0 40 -75 0 -75 0 0 -40z"/>
<path d="M1340 3120 l0 -40 40 0 40 0 0 40 0 40 -40 0 -40 0 0 -40z"/>
<path d="M1430 3120 l0 -40 75 0 75 0 0 40 0 40 -75 0 -75 0 0 -40z"/>
<path d="M1590 3120 l0 -40 40 0 40 0 0 40 0 40 -40 0 -40 0 0 -40z"/>
<path d="M1680 3120 l0 -40 75 0 75 0 0 40 0 40 -75 0 -75 0 0 -40z"/>
<path d="M1840 3120 l0 -40 40 0 40 0 0 40 0 40 -40 0 -40 0 0 -40z"/>
<path d="M1930 3120 l0 -40 75 0 75 0 0 40 0 40 -75 0 -75 0 0 -40z"/>
<path d="M2090 3120 l0 -40 40 0 40 0 0 40 0 40 -40 0 -40 0 0 -40z"/>
<path d="M2180 3120 l0 -40 75 0 75 0 0 40 0 40 -75 0 -75 0 0 -40z"/>
<path d="M2340 3120 l0 -40 40 0 40 0 0 40 0 40 -40 0 -40 0 0 -40z"/>
<path d="M2430 3120 l0 -40 75 0 75 0 0 40 0 40 -75 0 -75 0 0 -40z"/>
<path d="M2590 3120 l0 -40 40 0 40 0 0 40 0 40 -40 0 -40 0 0 -40z"/>
<path d="M2680 3120 l0 -40 75 0 75 0 0 40 0 40 -75 0 -75 0 0 -40z"/>
<path d="M2840 3120 l0 -40 40 0 40 0 0 40 0 40 -40 0 -40 0 0 -40z"/>
<path d="M2930 3120 l0 -40 75 0 75 0 0 40 0 40 -75 0 -75 0 0 -40z"/>
<path d="M3090 3120 l0 -40 40 0 40 0 0 40 0 40 -40 0 -40 0 0 -40z"/>
<path d="M3180 3120 l0 -40 75 0 75 0 0 40 0 40 -75 0 -75 0 0 -40z"/>
<path d="M3340 3120 l0 -40 40 0 40 0 0 40 0 40 -40 0 -40 0 0 -40z"/>
<path d="M3430 3120 l0 -40 75 0 75 0 0 40 0 40 -75 0 -75 0 0 -40z"/>
<path d="M3590 3120 l0 -40 40 0 40 0 0 40 0 40 -40 0 -40 0 0 -40z"/>
<path d="M3680 3120 l0 -40 75 0 75 0 0 40 0 40 -75 0 -75 0 0 -40z"/>
<path d="M3840 3120 l0 -40 40 0 40 0 0 40 0 40 -40 0 -40 0 0 -40z"/>
<path d="M3930 3120 c0 -39 1 -40 35 -40 34 0 35 1 35 40 0 39 -1 40 -35 40
-34 0 -35 -1 -35 -40z"/>
<path d="M0 2995 l0 -75 40 0 40 0 0 75 0 75 -40 0 -40 0 0 -75z"/>
<path d="M90 2995 l0 -75 40 0 40 0 0 75 0 75 -40 0 -40 0 0 -75z"/>
<path d="M180 2995 l0 -75 75 0 75 0 0 75 0 75 -75 0 -75 0 0 -75z"/>
<path d="M340 2995 l0 -75 40 0 40 0 0 75 0 75 -40 0 -40 0 0 -75z"/>
<path d="M430 2995 l0 -75 75 0 75 0 0 75 0 75 -75 0 -75 0 0 -75z"/>
<path d="M590 2995 l0 -75 40 0 40 0 0 75 0 75 -40 0 -40 0 0 -75z"/>
<path d="M680 2995 l0 -75 75 0 75 0 0 75 0 75 -75 0 -75 0 0 -75z"/>
<path d="M840 2995 l0 -75 40 0 40 0 0 75 0 75 -40 0 -40 0 0 -75z"/>
<path d="M930 2995 l0 -75 75 0 75 0 0 75 0 75 -75 0 -75 0 0 -75z"/>
<path d="M1090 2995 l0 -75 40 0 40 0 0 75 0 75 -40 0 -40 0 0 -75z"/>
<path d="M1180 2995 l0 -75 75 0 75 0 0 75 0 75 -75 0 -75 0 0 -75z"/>
<path d="M1340 2995 l0 -75 40 0 40 0 0 75 0 75 -40 0 -40 0 0 -75z"/>
<path d="M1430 2995 l0 -75 75 0 75 0 0 75 0 75 -75 0 -75 0 0 -75z"/>
<path d="M1590 2995 l0 -75 40 0 40 0 0 75 0 75 -40 0 -40 0 0 -75z"/>
<path d="M1680 2995 l0 -75 75 0 75 0 0 75 0 75 -75 0 -75 0 0 -75z"/>
<path d="M1840 2995 l0 -75 40 0 40 0 0 75 0 75 -40 0 -40 0 0 -75z"/>
<path d="M1930 2995 l0 -75 75 0 75 0 0 75 0 75 -75 0 -75 0 0 -75z"/>
<path d="M2090 2995 l0 -75 40 0 40 0 0 75 0 75 -40 0 -40 0 0 -75z"/>
<path d="M2180 2995 l0 -75 75 0 75 0 0 75 0 75 -75 0 -75 0 0 -75z"/>
<path d="M2340 2995 l0 -75 40 0 40 0 0 75 0 75 -40 0 -40 0 0 -75z"/>
<path d="M2430 2995 l0 -75 75 0 75 0 0 75 0 75 -75 0 -75 0 0 -75z"/>
<path d="M2590 2995 l0 -75 40 0 40 0 0 75 0 75 -40 0 -40 0 0 -75z"/>
<path d="M2680 2995 l0 -75 75 0 75 0 0 75 0 75 -75 0 -75 0 0 -75z"/>
<path d="M2840 2995 l0 -75 40 0 40 0 0 75 0 75 -40 0 -40 0 0 -75z"/>
<path d="M2930 2995 l0 -75 75 0 75 0 0 75 0 75 -75 0 -75 0 0 -75z"/>
<path d="M3090 2995 l0 -75 40 0 40 0 0 75 0 75 -40 0 -40 0 0 -75z"/>
<path d="M3180 2995 l0 -75 75 0 75 0 0 75 0 75 -75 0 -75 0 0 -75z"/>
<path d="M3340 2995 l0 -75 40 0 40 0 0 75 0 75 -40 0 -40 0 0 -75z"/>
<path d="M3430 2995 l0 -75 75 0 75 0 0 75 0 75 -75 0 -75 0 0 -75z"/>
<path d="M3590 2995 l0 -75 40 0 40 0 0 75 0 75 -40 0 -40 0 0 -75z"/>
<path d="M3680 2995 l0 -75 75 0 75 0 0 75 0 75 -75 0 -75 0 0 -75z"/>
<path d="M3840 2995 l0 -75 40 0 40 0 0 75 0 75 -40 0 -40 0 0 -75z"/>
<path d="M3930 2995 l0 -75 35 0 35 0 0 75 0 75 -35 0 -35 0 0 -75z"/>
<path d="M0 2870 l0 -40 40 0 40 0 0 40 0 40 -40 0 -40 0 0 -40z"/>
<path d="M90 2870 l0 -40 40 0 40 0 0 40 0 40 -40 0 -40 0 0 -40z"/>
<path d="M180 2870 l0 -40 75 0 75 0 0 40 0 40 -75 0 -75 0 0 -40z"/>
<path d="M340 2870 l0 -40 40 0 40 0 0 40 0 40 -40 0 -40 0 0 -40z"/>
<path d="M430 2870 l0 -40 75 0 75 0 0 40 0 40 -75 0 -75 0 0 -40z"/>
<path d="M590 2870 l0 -40 40 0 40 0 0 40 0 40 -40 0 -40 0 0 -40z"/>
<path d="M680 2870 l0 -40 75 0 75 0 0 40 0 40 -75 0 -75 0 0 -40z"/>
<path d="M840 2870 l0 -40 40 0 40 0 0 40 0 40 -40 0 -40 0 0 -40z"/>
<path d="M930 2870 l0 -40 75 0 75 0 0 40 0 40 -75 0 -75 0 0 -40z"/>
<path d="M1090 2870 l0 -40 40 0 40 0 0 40 0 40 -40 0 -40 0 0 -40z"/>
<path d="M1180 2870 l0 -40 75 0 75 0 0 40 0 40 -75 0 -75 0 0 -40z"/>
<path d="M1340 2870 l0 -40 40 0 40 0 0 40 0 40 -40 0 -40 0 0 -40z"/>
<path d="M1430 2870 l0 -40 75 0 75 0 0 40 0 40 -75 0 -75 0 0 -40z"/>
<path d="M1590 2870 l0 -40 40 0 40 0 0 40 0 40 -40 0 -40 0 0 -40z"/>
<path d="M1680 2870 l0 -40 75 0 75 0 0 40 0 40 -75 0 -75 0 0 -40z"/>
<path d="M1840 2870 l0 -40 40 0 40 0 0 40 0 40 -40 0 -40 0 0 -40z"/>
<path d="M1930 2870 l0 -40 75 0 75 0 0 40 0 40 -75 0 -75 0 0 -40z"/>
<path d="M2090 2870 l0 -40 40 0 40 0 0 40 0 40 -40 0 -40 0 0 -40z"/>
<path d="M2180 2870 l0 -40 75 0 75 0 0 40 0 40 -75 0 -75 0 0 -40z"/>
<path d="M2340 2870 l0 -40 40 0 40 0 0 40 0 40 -40 0 -40 0 0 -40z"/>
<path d="M2430 2870 l0 -40 75 0 75 0 0 40 0 40 -75 0 -75 0 0 -40z"/>
<path d="M2590 2870 l0 -40 40 0 40 0 0 40 0 40 -40 0 -40 0 0 -40z"/>
<path d="M2680 2870 l0 -40 75 0 75 0 0 40 0 40 -75 0 -75 0 0 -40z"/>
<path d="M2840 2870 l0 -40 40 0 40 0 0 40 0 40 -40 0 -40 0 0 -40z"/>
<path d="M2930 2870 l0 -40 75 0 75 0 0 40 0 40 -75 0 -75 0 0 -40z"/>
<path d="M3090 2870 l0 -40 40 0 40 0 0 40 0 40 -40 0 -40 0 0 -40z"/>
<path d="M3180 2870 l0 -40 75 0 75 0 0 40 0 40 -75 0 -75 0 0 -40z"/>
<path d="M3340 2870 l0 -40 40 0 40 0 0 40 0 40 -40 0 -40 0 0 -40z"/>
<path d="M3430 2870 l0 -40 75 0 75 0 0 40 0 40 -75 0 -75 0 0 -40z"/>
<path d="M3590 2870 l0 -40 40 0 40 0 0 40 0 40 -40 0 -40 0 0 -40z"/>
<path d="M3680 2870 l0 -40 75 0 75 0 0 40 0 40 -75 0 -75 0 0 -40z"/>
<path d="M3840 2870 l0 -40 40 0 40 0 0 40 0 40 -40 0 -40 0 0 -40z"/>
<path d="M3930 2870 c0 -39 1 -40 35 -40 34 0 35 1 35 40 0 39 -1 40 -35 40
-34 0 -35 -1 -35 -40z"/>
<path d="M0 2745 l0 -75 40 0 40 0 0 75 0 75 -40 0 -40 0 0 -75z"/>
<path d="M90 2745 l0 -75 40 0 40 0 0 75 0 75 -40 0 -40 0 0 -75z"/>
<path d="M180 2745 l0 -75 75 0 75 0 0 75 0 75 -75 0 -75 0 0 -75z"/>
<path d="M340 2745 l0 -75 40 0 40 0 0 75 0 75 -40 0 -40 0 0 -75z"/>
<path d="M430 2745 l0 -75 75 0 75 0 0 75 0 75 -75 0 -75 0 0 -75z"/>
<path d="M590 2745 l0 -75 40 0 40 0 0 75 0 75 -40 0 -40 0 0 -75z"/>
<path d="M680 2745 l0 -75 75 0 75 0 0 75 0 75 -75 0 -75 0 0 -75z"/>
<path d="M840 2745 l0 -75 40 0 40 0 0 75 0 75 -40 0 -40 0 0 -75z"/>
<path d="M930 2745 l0 -75 75 0 75 0 0 75 0 75 -75 0 -75 0 0 -75z"/>
<path d="M1090 2745 l0 -75 40 0 40 0 0 75 0 75 -40 0 -40 0 0 -75z"/>
<path d="M1180 2745 l0 -75 75 0 75 0 0 75 0 75 -75 0 -75 0 0 -75z"/>
<path d="M1340 2745 l0 -75 40 0 40 0 0 75 0 75 -40 0 -40 0 0 -75z"/>
<path d="M1430 2745 l0 -75 75 0 75 0 0 75 0 75 -75 0 -75 0 0 -75z"/>
<path d="M1590 2745 l0 -75 40 0 40 0 0 75 0 75 -40 0 -40 0 0 -75z"/>
<path d="M1680 2745 l0 -75 75 0 75 0 0 75 0 75 -75 0 -75 0 0 -75z"/>
<path d="M1840 2745 l0 -75 40 0 40 0 0 75 0 75 -40 0 -40 0 0 -75z"/>
<path d="M1930 2745 l0 -75 75 0 75 0 0 75 0 75 -75 0 -75 0 0 -75z"/>
<path d="M2090 2745 l0 -75 40 0 40 0 0 75 0 75 -40 0 -40 0 0 -75z"/>
<path d="M2180 2745 l0 -75 75 0 75 0 0 75 0 75 -75 0 -75 0 0 -75z"/>
<path d="M2340 2745 l0 -75 40 0 40 0 0 75 0 75 -40 0 -40 0 0 -75z"/>
<path d="M2430 2745 l0 -75 75 0 75 0 0 75 0 75 -75 0 -75 0 0 -75z"/>
<path d="M2590 2745 l0 -75 40 0 40 0 0 75 0 75 -40 0 -40 0 0 -75z"/>
<path d="M2680 2745 l0 -75 75 0 75 0 0 75 0 75 -75 0 -75 0 0 -75z"/>
<path d="M2840 2745 l0 -75 40 0 40 0 0 75 0 75 -40 0 -40 0 0 -75z"/>
<path d="M2930 2745 l0 -75 75 0 75 0 0 75 0 75 -75 0 -75 0 0 -75z"/>
<path d="M3090 2745 l0 -75 40 0 40 0 0 75 0 75 -40 0 -40 0 0 -75z"/>
<path d="M3180 2745 l0 -75 75 0 75 0 0 75 0 75 -75 0 -75 0 0 -75z"/>
<path d="M3340 2745 l0 -75 40 0 40 0 0 75 0 75 -40 0 -40 0 0 -75z"/>
<path d="M3430 2745 l0 -75 75 0 75 0 0 75 0 75 -75 0 -75 0 0 -75z"/>
<path d="M3590 2745 l0 -75 40 0 40 0 0 75 0 75 -40 0 -40 0 0 -75z"/>
<path d="M3680 2745 l0 -75 75 0 75 0 0 75 0 75 -75 0 -75 0 0 -75z"/>
<path d="M3840 2745 l0 -75 40 0 40 0 0 75 0 75 -40 0 -40 0 0 -75z"/>
<path d="M3930 2745 l0 -75 35 0 35 0 0 75 0 75 -35 0 -35 0 0 -75z"/>
<path d="M0 2620 l0 -40 40 0 40 0 0 40 0 40 -40 0 -40 0 0 -40z"/>
<path d="M90 2620 l0 -40 40 0 40 0 0 40 0 40 -40 0 -40 0 0 -40z"/>
<path d="M180 2620 l0 -40 75 0 75 0 0 40 0 40 -75 0 -75 0 0 -40z"/>
<path d="M340 2620 l0 -40 40 0 40 0 0 40 0 40 -40 0 -40 0 0 -40z"/>
<path d="M430 2620 l0 -40 75 0 75 0 0 40 0 40 -75 0 -75 0 0 -40z"/>
<path d="M590 2620 l0 -40 40 0 40 0 0 40 0 40 -40 0 -40 0 0 -40z"/>
<path d="M680 2620 l0 -40 75 0 75 0 0 40 0 40 -75 0 -75 0 0 -40z"/>
<path d="M840 2620 l0 -40 40 0 40 0 0 40 0 40 -40 0 -40 0 0 -40z"/>
<path d="M930 2620 l0 -40 75 0 75 0 0 40 0 40 -75 0 -75 0 0 -40z"/>
<path d="M1090 2620 l0 -40 40 0 40 0 0 40 0 40 -40 0 -40 0 0 -40z"/>
<path d="M1180 2620 l0 -40 75 0 75 0 0 40 0 40 -75 0 -75 0 0 -40z"/>
<path d="M1340 2620 l0 -40 40 0 40 0 0 40 0 40 -40 0 -40 0 0 -40z"/>
<path d="M1430 2620 l0 -40 75 0 75 0 0 40 0 40 -75 0 -75 0 0 -40z"/>
<path d="M1590 2620 l0 -40 40 0 40 0 0 40 0 40 -40 0 -40 0 0 -40z"/>
<path d="M1680 2620 l0 -40 75 0 75 0 0 40 0 40 -75 0 -75 0 0 -40z"/>
<path d="M1840 2620 l0 -40 40 0 40 0 0 40 0 40 -40 0 -40 0 0 -40z"/>
<path d="M1930 2620 l0 -40 75 0 75 0 0 40 0 40 -75 0 -75 0 0 -40z"/>
<path d="M2090 2620 l0 -40 40 0 40 0 0 40 0 40 -40 0 -40 0 0 -40z"/>
<path d="M2180 2620 l0 -40 75 0 75 0 0 40 0 40 -75 0 -75 0 0 -40z"/>
<path d="M2340 2620 l0 -40 40 0 40 0 0 40 0 40 -40 0 -40 0 0 -40z"/>
<path d="M2430 2620 l0 -40 75 0 75 0 0 40 0 40 -75 0 -75 0 0 -40z"/>
<path d="M2590 2620 l0 -40 40 0 40 0 0 40 0 40 -40 0 -40 0 0 -40z"/>
<path d="M2680 2620 l0 -40 75 0 75 0 0 40 0 40 -75 0 -75 0 0 -40z"/>
<path d="M2840 2620 l0 -40 40 0 40 0 0 40 0 40 -40 0 -40 0 0 -40z"/>
<path d="M2930 2620 l0 -40 75 0 75 0 0 40 0 40 -75 0 -75 0 0 -40z"/>
<path d="M3090 2620 l0 -40 40 0 40 0 0 40 0 40 -40 0 -40 0 0 -40z"/>
<path d="M3180 2620 l0 -40 75 0 75 0 0 40 0 40 -75 0 -75 0 0 -40z"/>
<path d="M3340 2620 l0 -40 40 0 40 0 0 40 0 40 -40 0 -40 0 0 -40z"/>
<path d="M3430 2620 l0 -40 75 0 75 0 0 40 0 40 -75 0 -75 0 0 -40z"/>
<path d="M3590 2620 l0 -40 40 0 40 0 0 40 0 40 -40 0 -40 0 0 -40z"/>
<path d="M3680 2620 l0 -40 75 0 75 0 0 40 0 40 -75 0 -75 0 0 -40z"/>
<path d="M3840 2620 l0 -40 40 0 40 0 0 40 0 40 -40 0 -40 0 0 -40z"/>
<path d="M3930 2620 c0 -39 1 -40 35 -40 34 0 35 1 35 40 0 39 -1 40 -35 40
-34 0 -35 -1 -35 -40z"/>
<path d="M0 2495 l0 -75 40 0 40 0 0 75 0 75 -40 0 -40 0 0 -75z"/>
<path d="M90 2495 l0 -75 40 0 40 0 0 75 0 75 -40 0 -40 0 0 -75z"/>
<path d="M180 2495 l0 -75 75 0 75 0 0 75 0 75 -75 0 -75 0 0 -75z"/>
<path d="M340 2495 l0 -75 40 0 40 0 0 75 0 75 -40 0 -40 0 0 -75z"/>
<path d="M430 2495 l0 -75 75 0 75 0 0 75 0 75 -75 0 -75 0 0 -75z"/>
<path d="M590 2495 l0 -75 40 0 40 0 0 75 0 75 -40 0 -40 0 0 -75z"/>
<path d="M680 2495 l0 -75 75 0 75 0 0 75 0 75 -75 0 -75 0 0 -75z"/>
<path d="M840 2495 l0 -75 40 0 40 0 0 75 0 75 -40 0 -40 0 0 -75z"/>
<path d="M930 2495 l0 -75 75 0 75 0 0 75 0 75 -75 0 -75 0 0 -75z"/>
<path d="M1090 2495 l0 -75 40 0 40 0 0 75 0 75 -40 0 -40 0 0 -75z"/>
<path d="M1180 2495 l0 -75 75 0 75 0 0 75 0 75 -75 0 -75 0 0 -75z"/>
<path d="M1340 2495 l0 -75 40 0 40 0 0 75 0 75 -40 0 -40 0 0 -75z"/>
<path d="M1430 2495 l0 -75 75 0 75 0 0 75 0 75 -75 0 -75 0 0 -75z"/>
<path d="M1590 2495 l0 -75 40 0 40 0 0 75 0 75 -40 0 -40 0 0 -75z"/>
<path d="M1680 2495 l0 -75 75 0 75 0 0 75 0 75 -75 0 -75 0 0 -75z"/>
<path d="M1840 2495 l0 -75 40 0 40 0 0 75 0 75 -40 0 -40 0 0 -75z"/>
<path d="M1930 2495 l0 -75 75 0 75 0 0 75 0 75 -75 0 -75 0 0 -75z"/>
<path d="M2090 2495 l0 -75 40 0 40 0 0 75 0 75 -40 0 -40 0 0 -75z"/>
<path d="M2180 2495 l0 -75 75 0 75 0 0 75 0 75 -75 0 -75 0 0 -75z"/>
<path d="M2340 2495 l0 -75 40 0 40 0 0 75 0 75 -40 0 -40 0 0 -75z"/>
<path d="M2430 2495 l0 -75 75 0 75 0 0 75 0 75 -75 0 -75 0 0 -75z"/>
<path d="M2590 2495 l0 -75 40 0 40 0 0 75 0 75 -40 0 -40 0 0 -75z"/>
<path d="M2680 2495 l0 -75 75 0 75 0 0 75 0 75 -75 0 -75 0 0 -75z"/>
<path d="M2840 2495 l0 -75 40 0 40 0 0 75 0 75 -40 0 -40 0 0 -75z"/>
<path d="M2930 2495 l0 -75 75 0 75 0 0 75 0 75 -75 0 -75 0 0 -75z"/>
<path d="M3090 2495 l0 -75 40 0 40 0 0 75 0 75 -40 0 -40 0 0 -75z"/>
<path d="M3180 2495 l0 -75 75 0 75 0 0 75 0 75 -75 0 -75 0 0 -75z"/>
<path d="M3340 2495 l0 -75 40 0 40 0 0 75 0 75 -40 0 -40 0 0 -75z"/>
<path d="M3430 2495 l0 -75 75 0 75 0 0 75 0 75 -75 0 -75 0 0 -75z"/>
<path d="M3590 2495 l0 -75 40 0 40 0 0 75 0 75 -40 0 -40 0 0 -75z"/>
<path d="M3680 2495 l0 -75 75 0 75 0 0 75 0 75 -75 0 -75 0 0 -75z"/>
<path d="M3840 2495 l0 -75 40 0 40 0 0 75 0 75 -40 0 -40 0 0 -75z"/>
<path d="M3930 2495 l0 -75 35 0 35 0 0 75 0 75 -35 0 -35 0 0 -75z"/>
<path d="M0 2370 l0 -40 40 0 40 0 0 40 0 40 -40 0 -40 0 0 -40z"/>
<path d="M90 2370 l0 -40 40 0 40 0 0 40 0 40 -40 0 -40 0 0 -40z"/>
<path d="M180 2370 l0 -40 75 0 75 0 0 40 0 40 -75 0 -75 0 0 -40z"/>
<path d="M340 2370 l0 -40 40 0 40 0 0 40 0 40 -40 0 -40 0 0 -40z"/>
<path d="M430 2370 l0 -40 75 0 75 0 0 40 0 40 -75 0 -75 0 0 -40z"/>
<path d="M590 2370 l0 -40 40 0 40 0 0 40 0 40 -40 0 -40 0 0 -40z"/>
<path d="M680 2370 l0 -40 75 0 75 0 0 40 0 40 -75 0 -75 0 0 -40z"/>
<path d="M840 2370 l0 -40 40 0 40 0 0 40 0 40 -40 0 -40 0 0 -40z"/>
<path d="M930 2370 l0 -40 75 0 75 0 0 40 0 40 -75 0 -75 0 0 -40z"/>
<path d="M1090 2370 l0 -40 40 0 40 0 0 40 0 40 -40 0 -40 0 0 -40z"/>
<path d="M1180 2370 l0 -40 75 0 75 0 0 40 0 40 -75 0 -75 0 0 -40z"/>
<path d="M1340 2370 l0 -40 40 0 40 0 0 40 0 40 -40 0 -40 0 0 -40z"/>
<path d="M1430 2370 l0 -40 75 0 75 0 0 40 0 40 -75 0 -75 0 0 -40z"/>
<path d="M1590 2370 l0 -40 40 0 40 0 0 40 0 40 -40 0 -40 0 0 -40z"/>
<path d="M1680 2370 l0 -40 75 0 75 0 0 40 0 40 -75 0 -75 0 0 -40z"/>
<path d="M1840 2370 l0 -40 40 0 40 0 0 40 0 40 -40 0 -40 0 0 -40z"/>
<path d="M1930 2370 l0 -40 75 0 75 0 0 40 0 40 -75 0 -75 0 0 -40z"/>
<path d="M2090 2370 l0 -40 40 0 40 0 0 40 0 40 -40 0 -40 0 0 -40z"/>
<path d="M2180 2370 l0 -40 75 0 75 0 0 40 0 40 -75 0 -75 0 0 -40z"/>
<path d="M2340 2370 l0 -40 40 0 40 0 0 40 0 40 -40 0 -40 0 0 -40z"/>
<path d="M2430 2370 l0 -40 75 0 75 0 0 40 0 40 -75 0 -75 0 0 -40z"/>
<path d="M2590 2370 l0 -40 40 0 40 0 0 40 0 40 -40 0 -40 0 0 -40z"/>
<path d="M2680 2370 l0 -40 75 0 75 0 0 40 0 40 -75 0 -75 0 0 -40z"/>
<path d="M2840 2370 l0 -40 40 0 40 0 0 40 0 40 -40 0 -40 0 0 -40z"/>
<path d="M2930 2370 l0 -40 75 0 75 0 0 40 0 40 -75 0 -75 0 0 -40z"/>
<path d="M3090 2370 l0 -40 40 0 40 0 0 40 0 40 -40 0 -40 0 0 -40z"/>
<path d="M3180 2370 l0 -40 75 0 75 0 0 40 0 40 -75 0 -75 0 0 -40z"/>
<path d="M3340 2370 l0 -40 40 0 40 0 0 40 0 40 -40 0 -40 0 0 -40z"/>
<path d="M3430 2370 l0 -40 75 0 75 0 0 40 0 40 -75 0 -75 0 0 -40z"/>
<path d="M3590 2370 l0 -40 40 0 40 0 0 40 0 40 -40 0 -40 0 0 -40z"/>
<path d="M3680 2370 l0 -40 75 0 75 0 0 40 0 40 -75 0 -75 0 0 -40z"/>
<path d="M3840 2370 l0 -40 40 0 40 0 0 40 0 40 -40 0 -40 0 0 -40z"/>
<path d="M3930 2370 c0 -39 1 -40 35 -40 34 0 35 1 35 40 0 39 -1 40 -35 40
-34 0 -35 -1 -35 -40z"/>
<path d="M0 2245 l0 -75 40 0 40 0 0 75 0 75 -40 0 -40 0 0 -75z"/>
<path d="M90 2245 l0 -75 40 0 40 0 0 75 0 75 -40 0 -40 0 0 -75z"/>
<path d="M180 2245 l0 -75 75 0 75 0 0 75 0 75 -75 0 -75 0 0 -75z"/>
<path d="M340 2245 l0 -75 40 0 40 0 0 75 0 75 -40 0 -40 0 0 -75z"/>
<path d="M430 2245 l0 -75 75 0 75 0 0 75 0 75 -75 0 -75 0 0 -75z"/>
<path d="M590 2245 l0 -75 40 0 40 0 0 75 0 75 -40 0 -40 0 0 -75z"/>
<path d="M680 2245 l0 -75 75 0 75 0 0 75 0 75 -75 0 -75 0 0 -75z"/>
<path d="M840 2245 l0 -75 40 0 40 0 0 75 0 75 -40 0 -40 0 0 -75z"/>
<path d="M930 2245 l0 -75 75 0 75 0 0 75 0 75 -75 0 -75 0 0 -75z"/>
<path d="M1090 2245 l0 -75 40 0 40 0 0 75 0 75 -40 0 -40 0 0 -75z"/>
<path d="M1180 2245 l0 -75 75 0 75 0 0 75 0 75 -75 0 -75 0 0 -75z"/>
<path d="M1340 2245 l0 -75 40 0 40 0 0 75 0 75 -40 0 -40 0 0 -75z"/>
<path d="M1430 2245 l0 -75 75 0 75 0 0 75 0 75 -75 0 -75 0 0 -75z"/>
<path d="M1590 2245 l0 -75 40 0 40 0 0 75 0 75 -40 0 -40 0 0 -75z"/>
<path d="M1680 2245 l0 -75 75 0 75 0 0 75 0 75 -75 0 -75 0 0 -75z"/>
<path d="M1840 2245 l0 -75 40 0 40 0 0 75 0 75 -40 0 -40 0 0 -75z"/>
<path d="M1930 2245 l0 -75 75 0 75 0 0 75 0 75 -75 0 -75 0 0 -75z"/>
<path d="M2090 2245 l0 -75 40 0 40 0 0 75 0 75 -40 0 -40 0 0 -75z"/>
<path d="M2180 2245 l0 -75 75 0 75 0 0 75 0 75 -75 0 -75 0 0 -75z"/>
<path d="M2340 2245 l0 -75 40 0 40 0 0 75 0 75 -40 0 -40 0 0 -75z"/>
<path d="M2430 2245 l0 -75 75 0 75 0 0 75 0 75 -75 0 -75 0 0 -75z"/>
<path d="M2590 2245 l0 -75 40 0 40 0 0 75 0 75 -40 0 -40 0 0 -75z"/>
<path d="M2680 2245 l0 -75 75 0 75 0 0 75 0 75 -75 0 -75 0 0 -75z"/>
<path d="M2840 2245 l0 -75 40 0 40 0 0 75 0 75 -40 0 -40 0 0 -75z"/>
<path d="M2930 2245 l0 -75 75 0 75 0 0 75 0 75 -75 0 -75 0 0 -75z"/>
<path d="M3090 2245 l0 -75 40 0 40 0 0 75 0 75 -40 0 -40 0 0 -75z"/>
<path d="M3180 2245 l0 -75 75 0 75 0 0 75 0 75 -75 0 -75 0 0 -75z"/>
<path d="M3340 2245 l0 -75 40 0 40 0 0 75 0 75 -40 0 -40 0 0 -75z"/>
<path d="M3430 2245 l0 -75 75 0 75 0 0 75 0 75 -75 0 -75 0 0 -75z"/>
<path d="M3590 2245 l0 -75 40 0 40 0 0 75 0 75 -40 0 -40 0 0 -75z"/>
<path d="M3680 2245 l0 -75 75 0 75 0 0 75 0 75 -75 0 -75 0 0 -75z"/>
<path d="M3840 2245 l0 -75 40 0 40 0 0 75 0 75 -40 0 -40 0 0 -75z"/>
<path d="M3930 2245 l0 -75 35 0 35 0 0 75 0 75 -35 0 -35 0 0 -75z"/>
<path d="M0 2120 l0 -40 40 0 40 0 0 40 0 40 -40 0 -40 0 0 -40z"/>
<path d="M90 2120 l0 -40 40 0 40 0 0 40 0 40 -40 0 -40 0 0 -40z"/>
<path d="M180 2120 l0 -40 75 0 75 0 0 40 0 40 -75 0 -75 0 0 -40z"/>
<path d="M340 2120 l0 -40 40 0 40 0 0 40 0 40 -40 0 -40 0 0 -40z"/>
<path d="M430 2120 l0 -40 75 0 75 0 0 40 0 40 -75 0 -75 0 0 -40z"/>
<path d="M590 2120 l0 -40 40 0 40 0 0 40 0 40 -40 0 -40 0 0 -40z"/>
<path d="M680 2120 l0 -40 75 0 75 0 0 40 0 40 -75 0 -75 0 0 -40z"/>
<path d="M840 2120 l0 -40 40 0 40 0 0 40 0 40 -40 0 -40 0 0 -40z"/>
<path d="M930 2120 l0 -40 75 0 75 0 0 40 0 40 -75 0 -75 0 0 -40z"/>
<path d="M1090 2120 l0 -40 40 0 40 0 0 40 0 40 -40 0 -40 0 0 -40z"/>
<path d="M1180 2120 l0 -40 75 0 75 0 0 40 0 40 -75 0 -75 0 0 -40z"/>
<path d="M1340 2120 l0 -40 40 0 40 0 0 40 0 40 -40 0 -40 0 0 -40z"/>
<path d="M1430 2120 l0 -40 75 0 75 0 0 40 0 40 -75 0 -75 0 0 -40z"/>
<path d="M1590 2120 l0 -40 40 0 40 0 0 40 0 40 -40 0 -40 0 0 -40z"/>
<path d="M1680 2120 l0 -40 75 0 75 0 0 40 0 40 -75 0 -75 0 0 -40z"/>
<path d="M1840 2120 l0 -40 40 0 40 0 0 40 0 40 -40 0 -40 0 0 -40z"/>
<path d="M1930 2120 l0 -40 75 0 75 0 0 40 0 40 -75 0 -75 0 0 -40z"/>
<path d="M2090 2120 l0 -40 40 0 40 0 0 40 0 40 -40 0 -40 0 0 -40z"/>
<path d="M2180 2120 l0 -40 75 0 75 0 0 40 0 40 -75 0 -75 0 0 -40z"/>
<path d="M2340 2120 l0 -40 40 0 40 0 0 40 0 40 -40 0 -40 0 0 -40z"/>
<path d="M2430 2120 l0 -40 75 0 75 0 0 40 0 40 -75 0 -75 0 0 -40z"/>
<path d="M2590 2120 l0 -40 40 0 40 0 0 40 0 40 -40 0 -40 0 0 -40z"/>
<path d="M2680 2120 l0 -40 75 0 75 0 0 40 0 40 -75 0 -75 0 0 -40z"/>
<path d="M2840 2120 l0 -40 40 0 40 0 0 40 0 40 -40 0 -40 0 0 -40z"/>
<path d="M2930 2120 l0 -40 75 0 75 0 0 40 0 40 -75 0 -75 0 0 -40z"/>
<path d="M3090 2120 l0 -40 40 0 40 0 0 40 0 40 -40 0 -40 0 0 -40z"/>
<path d="M3180 2120 l0 -40 75 0 75 0 0 40 0 40 -75 0 -75 0 0 -40z"/>
<path d="M3340 2120 l0 -40 40 0 40 0 0 40 0 40 -40 0 -40 0 0 -40z"/>
<path d="M3430 2120 l0 -40 75 0 75 0 0 40 0 40 -75 0 -75 0 0 -40z"/>
<path d="M3590 2120 l0 -40 40 0 40 0 0 40 0 40 -40 0 -40 0 0 -40z"/>
<path d="M3680 2120 l0 -40 75 0 75 0 0 40 0 40 -75 0 -75 0 0 -40z"/>
<path d="M3840 2120 l0 -40 40 0 40 0 0 40 0 40 -40 0 -40 0 0 -40z"/>
<path d="M3930 2120 c0 -39 1 -40 35 -40 34 0 35 1 35 40 0 39 -1 40 -35 40
-34 0 -35 -1 -35 -40z"/>
<path d="M0 1995 l0 -75 40 0 40 0 0 75 0 75 -40 0 -40 0 0 -75z"/>
<path d="M90 1995 l0 -75 40 0 40 0 0 75 0 75 -40 0 -40 0 0 -75z"/>
<path d="M180 1995 l0 -75 75 0 75 0 0 75 0 75 -75 0 -75 0 0 -75z"/>
<path d="M340 1995 l0 -75 40 0 40 0 0 75 0 75 -40 0 -40 0 0 -75z"/>
<path d="M430 1995 l0 -75 75 0 75 0 0 75 0 75 -75 0 -75 0 0 -75z"/>
<path d="M590 1995 l0 -75 40 0 40 0 0 75 0 75 -40 0 -40 0 0 -75z"/>
<path d="M680 1995 l0 -75 75 0 75 0 0 75 0 75 -75 0 -75 0 0 -75z"/>
<path d="M840 1995 l0 -75 40 0 40 0 0 75 0 75 -40 0 -40 0 0 -75z"/>
<path d="M930 1995 l0 -75 75 0 75 0 0 75 0 75 -75 0 -75 0 0 -75z"/>
<path d="M1090 1995 l0 -75 40 0 40 0 0 75 0 75 -40 0 -40 0 0 -75z"/>
<path d="M1180 1995 l0 -75 75 0 75 0 0 75 0 75 -75 0 -75 0 0 -75z"/>
<path d="M1340 1995 l0 -75 40 0 40 0 0 75 0 75 -40 0 -40 0 0 -75z"/>
<path d="M1430 1995 l0 -75 75 0 75 0 0 75 0 75 -75 0 -75 0 0 -75z"/>
<path d="M1590 1995 l0 -75 40 0 40 0 0 75 0 75 -40 0 -40 0 0 -75z"/>
<path d="M1680 1995 l0 -75 75 0 75 0 0 75 0 75 -75 0 -75 0 0 -75z"/>
<path d="M1840 1995 l0 -75 40 0 40 0 0 75 0 75 -40 0 -40 0 0 -75z"/>
<path d="M1930 1995 l0 -75 75 0 75 0 0 75 0 75 -75 0 -75 0 0 -75z"/>
<path d="M2090 1995 l0 -75 40 0 40 0 0 75 0 75 -40 0 -40 0 0 -75z"/>
<path d="M2180 1995 l0 -75 75 0 75 0 0 75 0 75 -75 0 -75 0 0 -75z"/>
<path d="M2340 1995 l0 -75 40 0 40 0 0 75 0 75 -40 0 -40 0 0 -75z"/>
<path d="M2430 1995 l0 -75 75 0 75 0 0 75 0 75 -75 0 -75 0 0 -75z"/>
<path d="M2590 1995 l0 -75 40 0 40 0 0 75 0 75 -40 0 -40 0 0 -75z"/>
<path d="M2680 1995 l0 -75 75 0 75 0 0 75 0 75 -75 0 -75 0 0 -75z"/>
<path d="M2840 1995 l0 -75 40 0 40 0 0 75 0 75 -40 0 -40 0 0 -75z"/>
<path d="M2930 1995 l0 -75 75 0 75 0 0 75 0 75 -75 0 -75 0 0 -75z"/>
<path d="M3090 1995 l0 -75 40 0 40 0 0 75 0 75 -40 0 -40 0 0 -75z"/>
<path d="M3180 1995 l0 -75 75 0 75 0 0 75 0 75 -75 0 -75 0 0 -75z"/>
<path d="M3340 1995 l0 -75 40 0 40 0 0 75 0 75 -40 0 -40 0 0 -75z"/>
<path d="M3430 1995 l0 -75 75 0 75 0 0 75 0 75 -75 0 -75 0 0 -75z"/>
<path d="M3590 1995 l0 -75 40 0 40 0 0 75 0 75 -40 0 -40 0 0 -75z"/>
<path d="M3680 1995 l0 -75 75 0 75 0 0 75 0 75 -75 0 -75 0 0 -75z"/>
<path d="M3840 1995 l0 -75 40 0 40 0 0 75 0 75 -40 0 -40 0 0 -75z"/>
<path d="M3930 1995 l0 -75 35 0 35 0 0 75 0 75 -35 0 -35 0 0 -75z"/>
<path d="M0 1870 l0 -40 40 0 40 0 0 40 0 40 -40 0 -40 0 0 -40z"/>
<path d="M90 1870 l0 -40 40 0 40 0 0 40 0 40 -40 0 -40 0 0 -40z"/>
<path d="M180 1870 l0 -40 75 0 75 0 0 40 0 40 -75 0 -75 0 0 -40z"/>
<path d="M340 1870 l0 -40 40 0 40 0 0 40 0 40 -40 0 -40 0 0 -40z"/>
<path d="M430 1870 l0 -40 75 0 75 0 0 40 0 40 -75 0 -75 0 0 -40z"/>
<path d="M590 1870 l0 -40 40 0 40 0 0 40 0 40 -40 0 -40 0 0 -40z"/>
<path d="M680 1870 l0 -40 75 0 75 0 0 40 0 40 -75 0 -75 0 0 -40z"/>
<path d="M840 1870 l0 -40 40 0 40 0 0 40 0 40 -40 0 -40 0 0 -40z"/>
<path d="M930 1870 l0 -40 75 0 75 0 0 40 0 40 -75 0 -75 0 0 -40z"/>
<path d="M1090 1870 l0 -40 40 0 40 0 0 40 0 40 -40 0 -40 0 0 -40z"/>
<path d="M1180 1870 l0 -40 75 0 75 0 0 40 0 40 -75 0 -75 0 0 -40z"/>
<path d="M1340 1870 l0 -40 40 0 40 0 0 40 0 40 -40 0 -40 0 0 -40z"/>
<path d="M1430 1870 l0 -40 75 0 75 0 0 40 0 40 -75 0 -75 0 0 -40z"/>
<path d="M1590 1870 l0 -40 40 0 40 0 0 40 0 40 -40 0 -40 0 0 -40z"/>
<path d="M1680 1870 l0 -40 75 0 75 0 0 40 0 40 -75 0 -75 0 0 -40z"/>
<path d="M1840 1870 l0 -40 40 0 40 0 0 40 0 40 -40 0 -40 0 0 -40z"/>
<path d="M1930 1870 l0 -40 75 0 75 0 0 40 0 40 -75 0 -75 0 0 -40z"/>
<path d="M2090 1870 l0 -40 40 0 40 0 0 40 0 40 -40 0 -40 0 0 -40z"/>
<path d="M2180 1870 l0 -40 75 0 75 0 0 40 0 40 -75 0 -75 0 0 -40z"/>
<path d="M2340 1870 l0 -40 40 0 40 0 0 40 0 40 -40 0 -40 0 0 -40z"/>
<path d="M2430 1870 l0 -40 75 0 75 0 0 40 0 40 -75 0 -75 0 0 -40z"/>
<path d="M2590 1870 l0 -40 40 0 40 0 0 40 0 40 -40 0 -40 0 0 -40z"/>
<path d="M2680 1870 l0 -40 75 0 75 0 0 40 0 40 -75 0 -75 0 0 -40z"/>
<path d="M2840 1870 l0 -40 40 0 40 0 0 40 0 40 -40 0 -40 0 0 -40z"/>
<path d="M2930 1870 l0 -40 75 0 75 0 0 40 0 40 -75 0 -75 0 0 -40z"/>
<path d="M3090 1870 l0 -40 40 0 40 0 0 40 0 40 -40 0 -40 0 0 -40z"/>
<path d="M3180 1870 l0 -40 75 0 75 0 0 40 0 40 -75 0 -75 0 0 -40z"/>
<path d="M3340 1870 l0 -40 40 0 40 0 0 40 0 40 -40 0 -40 0 0 -40z"/>
<path d="M3430 1870 l0 -40 75 0 75 0 0 40 0 40 -75 0 -75 0 0 -40z"/>
<path d="M3590 1870 l0 -40 40 0 40 0 0 40 0 40 -40 0 -40 0 0 -40z"/>
<path d="M3680 1870 l0 -40 75 0 75 0 0 40 0 40 -75 0 -75 0 0 -40z"/>
<path d="M3840 1870 l0 -40 40 0 40 0 0 40 0 40 -40 0 -40 0 0 -40z"/>
<path d="M3930 1870 c0 -39 1 -40 35 -40 34 0 35 1 35 40 0 39 -1 40 -35 40
-34 0 -35 -1 -35 -40z"/>
<path d="M0 1745 l0 -75 40 0 40 0 0 75 0 75 -40 0 -40 0 0 -75z"/>
<path d="M90 1745 l0 -75 40 0 40 0 0 75 0 75 -40 0 -40 0 0 -75z"/>
<path d="M180 1745 l0 -75 75 0 75 0 0 75 0 75 -75 0 -75 0 0 -75z"/>
<path d="M340 1745 l0 -75 40 0 40 0 0 75 0 75 -40 0 -40 0 0 -75z"/>
<path d="M430 1745 l0 -75 75 0 75 0 0 75 0 75 -75 0 -75 0 0 -75z"/>
<path d="M590 1745 l0 -75 40 0 40 0 0 75 0 75 -40 0 -40 0 0 -75z"/>
<path d="M680 1745 l0 -75 75 0 75 0 0 75 0 75 -75 0 -75 0 0 -75z"/>
<path d="M840 1745 l0 -75 40 0 40 0 0 75 0 75 -40 0 -40 0 0 -75z"/>
<path d="M930 1745 l0 -75 75 0 75 0 0 75 0 75 -75 0 -75 0 0 -75z"/>
<path d="M1090 1745 l0 -75 40 0 40 0 0 75 0 75 -40 0 -40 0 0 -75z"/>
<path d="M1180 1745 l0 -75 75 0 75 0 0 75 0 75 -75 0 -75 0 0 -75z"/>
<path d="M1340 1745 l0 -75 40 0 40 0 0 75 0 75 -40 0 -40 0 0 -75z"/>
<path d="M1430 1745 l0 -75 75 0 75 0 0 75 0 75 -75 0 -75 0 0 -75z"/>
<path d="M1590 1745 l0 -75 40 0 40 0 0 75 0 75 -40 0 -40 0 0 -75z"/>
<path d="M1680 1745 l0 -75 75 0 75 0 0 75 0 75 -75 0 -75 0 0 -75z"/>
<path d="M1840 1745 l0 -75 40 0 40 0 0 75 0 75 -40 0 -40 0 0 -75z"/>
<path d="M1930 1745 l0 -75 75 0 75 0 0 75 0 75 -75 0 -75 0 0 -75z"/>
<path d="M2090 1745 l0 -75 40 0 40 0 0 75 0 75 -40 0 -40 0 0 -75z"/>
<path d="M2180 1745 l0 -75 75 0 75 0 0 75 0 75 -75 0 -75 0 0 -75z"/>
<path d="M2340 1745 l0 -75 40 0 40 0 0 75 0 75 -40 0 -40 0 0 -75z"/>
<path d="M2430 1745 l0 -75 75 0 75 0 0 75 0 75 -75 0 -75 0 0 -75z"/>
<path d="M2590 1745 l0 -75 40 0 40 0 0 75 0 75 -40 0 -40 0 0 -75z"/>
<path d="M2680 1745 l0 -75 75 0 75 0 0 75 0 75 -75 0 -75 0 0 -75z"/>
<path d="M2840 1745 l0 -75 40 0 40 0 0 75 0 75 -40 0 -40 0 0 -75z"/>
<path d="M2930 1745 l0 -75 75 0 75 0 0 75 0 75 -75 0 -75 0 0 -75z"/>
<path d="M3090 1745 l0 -75 40 0 40 0 0 75 0 75 -40 0 -40 0 0 -75z"/>
<path d="M3180 1745 l0 -75 75 0 75 0 0 75 0 75 -75 0 -75 0 0 -75z"/>
<path d="M3340 1745 l0 -75 40 0 40 0 0 75 0 75 -40 0 -40 0 0 -75z"/>
<path d="M3430 1745 l0 -75 75 0 75 0 0 75 0 75 -75 0 -75 0 0 -75z"/>
<path d="M3590 1745 l0 -75 40 0 40 0 0 75 0 75 -40 0 -40 0 0 -75z"/>
<path d="M3680 1745 l0 -75 75 0 75 0 0 75 0 75 -75 0 -75 0 0 -75z"/>
<path d="M3840 1745 l0 -75 40 0 40 0 0 75 0 75 -40 0 -40 0 0 -75z"/>
<path d="M3930 1745 l0 -75 35 0 35 0 0 75 0 75 -35 0 -35 0 0 -75z"/>
<path d="M0 1620 l0 -40 40 0 40 0 0 40 0 40 -40 0 -40 0 0 -40z"/>
<path d="M90 1620 l0 -40 40 0 40 0 0 40 0 40 -40 0 -40 0 0 -40z"/>
<path d="M180 1620 l0 -40 75 0 75 0 0 40 0 40 -75 0 -75 0 0 -40z"/>
<path d="M340 1620 l0 -40 40 0 40 0 0 40 0 40 -40 0 -40 0 0 -40z"/>
<path d="M430 1620 l0 -40 75 0 75 0 0 40 0 40 -75 0 -75 0 0 -40z"/>
<path d="M590 1620 l0 -40 40 0 40 0 0 40 0 40 -40 0 -40 0 0 -40z"/>
<path d="M680 1620 l0 -40 75 0 75 0 0 40 0 40 -75 0 -75 0 0 -40z"/>
<path d="M840 1620 l0 -40 40 0 40 0 0 40 0 40 -40 0 -40 0 0 -40z"/>
<path d="M930 1620 l0 -40 75 0 75 0 0 40 0 40 -75 0 -75 0 0 -40z"/>
<path d="M1090 1620 l0 -40 40 0 40 0 0 40 0 40 -40 0 -40 0 0 -40z"/>
<path d="M1180 1620 l0 -40 75 0 75 0 0 40 0 40 -75 0 -75 0 0 -40z"/>
<path d="M1340 1620 l0 -40 40 0 40 0 0 40 0 40 -40 0 -40 0 0 -40z"/>
<path d="M1430 1620 l0 -40 75 0 75 0 0 40 0 40 -75 0 -75 0 0 -40z"/>
<path d="M1590 1620 l0 -40 40 0 40 0 0 40 0 40 -40 0 -40 0 0 -40z"/>
<path d="M1680 1620 l0 -40 75 0 75 0 0 40 0 40 -75 0 -75 0 0 -40z"/>
<path d="M1840 1620 l0 -40 40 0 40 0 0 40 0 40 -40 0 -40 0 0 -40z"/>
<path d="M1930 1620 l0 -40 75 0 75 0 0 40 0 40 -75 0 -75 0 0 -40z"/>
<path d="M2090 1620 l0 -40 40 0 40 0 0 40 0 40 -40 0 -40 0 0 -40z"/>
<path d="M2180 1620 l0 -40 75 0 75 0 0 40 0 40 -75 0 -75 0 0 -40z"/>
<path d="M2340 1620 l0 -40 40 0 40 0 0 40 0 40 -40 0 -40 0 0 -40z"/>
<path d="M2430 1620 l0 -40 75 0 75 0 0 40 0 40 -75 0 -75 0 0 -40z"/>
<path d="M2590 1620 l0 -40 40 0 40 0 0 40 0 40 -40 0 -40 0 0 -40z"/>
<path d="M2680 1620 l0 -40 75 0 75 0 0 40 0 40 -75 0 -75 0 0 -40z"/>
<path d="M2840 1620 l0 -40 40 0 40 0 0 40 0 40 -40 0 -40 0 0 -40z"/>
<path d="M2930 1620 l0 -40 75 0 75 0 0 40 0 40 -75 0 -75 0 0 -40z"/>
<path d="M3090 1620 l0 -40 40 0 40 0 0 40 0 40 -40 0 -40 0 0 -40z"/>
<path d="M3180 1620 l0 -40 75 0 75 0 0 40 0 40 -75 0 -75 0 0 -40z"/>
<path d="M3340 1620 l0 -40 40 0 40 0 0 40 0 40 -40 0 -40 0 0 -40z"/>
<path d="M3430 1620 l0 -40 75 0 75 0 0 40 0 40 -75 0 -75 0 0 -40z"/>
<path d="M3590 1620 l0 -40 40 0 40 0 0 40 0 40 -40 0 -40 0 0 -40z"/>
<path d="M3680 1620 l0 -40 75 0 75 0 0 40 0 40 -75 0 -75 0 0 -40z"/>
<path d="M3840 1620 l0 -40 40 0 40 0 0 40 0 40 -40 0 -40 0 0 -40z"/>
<path d="M3930 1620 c0 -39 1 -40 35 -40 34 0 35 1 35 40 0 39 -1 40 -35 40
-34 0 -35 -1 -35 -40z"/>
<path d="M0 1495 l0 -75 40 0 40 0 0 75 0 75 -40 0 -40 0 0 -75z"/>
<path d="M90 1495 l0 -75 40 0 40 0 0 75 0 75 -40 0 -40 0 0 -75z"/>
<path d="M180 1495 l0 -75 75 0 75 0 0 75 0 75 -75 0 -75 0 0 -75z"/>
<path d="M340 1495 l0 -75 40 0 40 0 0 75 0 75 -40 0 -40 0 0 -75z"/>
<path d="M430 1495 l0 -75 75 0 75 0 0 75 0 75 -75 0 -75 0 0 -75z"/>
<path d="M590 1495 l0 -75 40 0 40 0 0 75 0 75 -40 0 -40 0 0 -75z"/>
<path d="M680 1495 l0 -75 75 0 75 0 0 75 0 75 -75 0 -75 0 0 -75z"/>
<path d="M840 1495 l0 -75 40 0 40 0 0 75 0 75 -40 0 -40 0 0 -75z"/>
<path d="M930 1495 l0 -75 75 0 75 0 0 75 0 75 -75 0 -75 0 0 -75z"/>
<path d="M1090 1495 l0 -75 40 0 40 0 0 75 0 75 -40 0 -40 0 0 -75z"/>
<path d="M1180 1495 l0 -75 75 0 75 0 0 75 0 75 -75 0 -75 0 0 -75z"/>
<path d="M1340 1495 l0 -75 40 0 40 0 0 75 0 75 -40 0 -40 0 0 -75z"/>
<path d="M1430 1495 l0 -75 75 0 75 0 0 75 0 75 -75 0 -75 0 0 -75z"/>
<path d="M1590 1495 l0 -75 40 0 40 0 0 75 0 75 -40 0 -40 0 0 -75z"/>
<path d="M1680 1495 l0 -75 75 0 75 0 0 75 0 75 -75 0 -75 0 0 -75z"/>
<path d="M1840 1495 l0 -75 40 0 40 0 0 75 0 75 -40 0 -40 0 0 -75z"/>
<path d="M1930 1495 l0 -75 75 0 75 0 0 75 0 75 -75 0 -75 0 0 -75z"/>
<path d="M2090 1495 l0 -75 40 0 40 0 0 75 0 75 -40 0 -40 0 0 -75z"/>
<path d="M2180 1495 l0 -75 75 0 75 0 0 75 0 75 -75 0 -75 0 0 -75z"/>
<path d="M2340 1495 l0 -75 40 0 40 0 0 75 0 75 -40 0 -40 0 0 -75z"/>
<path d="M2430 1495 l0 -75 75 0 75 0 0 75 0 75 -75 0 -75 0 0 -75z"/>
<path d="M2590 1495 l0 -75 40 0 40 0 0 75 0 75 -40 0 -40 0 0 -75z"/>
<path d="M2680 1495 l0 -75 75 0 75 0 0 75 0 75 -75 0 -75 0 0 -75z"/>
<path d="M2840 1495 l0 -75 40 0 40 0 0 75 0 75 -40 0 -40 0 0 -75z"/>
<path d="M2930 1495 l0 -75 75 0 75 0 0 75 0 75 -75 0 -75 0 0 -75z"/>
<path d="M3090 1495 l0 -75 40 0 40 0 0 75 0 75 -40 0 -40 0 0 -75z"/>
<path d="M3180 1495 l0 -75 75 0 75 0 0 75 0 75 -75 0 -75 0 0 -75z"/>
<path d="M3340 1495 l0 -75 40 0 40 0 0 75 0 75 -40 0 -40 0 0 -75z"/>
<path d="M3430 1495 l0 -75 75 0 75 0 0 75 0 75 -75 0 -75 0 0 -75z"/>
<path d="M3590 1495 l0 -75 40 0 40 0 0 75 0 75 -40 0 -40 0 0 -75z"/>
<path d="M3680 1495 l0 -75 75 0 75 0 0 75 0 75 -75 0 -75 0 0 -75z"/>
<path d="M3840 1495 l0 -75 40 0 40 0 0 75 0 75 -40 0 -40 0 0 -75z"/>
<path d="M3930 1495 l0 -75 35 0 35 0 0 75 0 75 -35 0 -35 0 0 -75z"/>
<path d="M0 1370 l0 -40 40 0 40 0 0 40 0 40 -40 0 -40 0 0 -40z"/>
<path d="M90 1370 l0 -40 40 0 40 0 0 40 0 40 -40 0 -40 0 0 -40z"/>
<path d="M180 1370 l0 -40 75 0 75 0 0 40 0 40 -75 0 -75 0 0 -40z"/>
<path d="M340 1370 l0 -40 40 0 40 0 0 40 0 40 -40 0 -40 0 0 -40z"/>
<path d="M430 1370 l0 -40 75 0 75 0 0 40 0 40 -75 0 -75 0 0 -40z"/>
<path d="M590 1370 l0 -40 40 0 40 0 0 40 0 40 -40 0 -40 0 0 -40z"/>
<path d="M680 1370 l0 -40 75 0 75 0 0 40 0 40 -75 0 -75 0 0 -40z"/>
<path d="M840 1370 l0 -40 40 0 40 0 0 40 0 40 -40 0 -40 0 0 -40z"/>
<path d="M930 1370 l0 -40 75 0 75 0 0 40 0 40 -75 0 -75 0 0 -40z"/>
<path d="M1090 1370 l0 -40 40 0 40 0 0 40 0 40 -40 0 -40 0 0 -40z"/>
<path d="M1180 1370 l0 -40 75 0 75 0 0 40 0 40 -75 0 -75 0 0 -40z"/>
<path d="M1340 1370 l0 -40 40 0 40 0 0 40 0 40 -40 0 -40 0 0 -40z"/>
<path d="M1430 1370 l0 -40 75 0 75 0 0 40 0 40 -75 0 -75 0 0 -40z"/>
<path d="M1590 1370 l0 -40 40 0 40 0 0 40 0 40 -40 0 -40 0 0 -40z"/>
<path d="M1680 1370 l0 -40 75 0 75 0 0 40 0 40 -75 0 -75 0 0 -40z"/>
<path d="M1840 1370 l0 -40 40 0 40 0 0 40 0 40 -40 0 -40 0 0 -40z"/>
<path d="M1930 1370 l0 -40 75 0 75 0 0 40 0 40 -75 0 -75 0 0 -40z"/>
<path d="M2090 1370 l0 -40 40 0 40 0 0 40 0 40 -40 0 -40 0 0 -40z"/>
<path d="M2180 1370 l0 -40 75 0 75 0 0 40 0 40 -75 0 -75 0 0 -40z"/>
<path d="M2340 1370 l0 -40 40 0 40 0 0 40 0 40 -40 0 -40 0 0 -40z"/>
<path d="M2430 1370 l0 -40 75 0 75 0 0 40 0 40 -75 0 -75 0 0 -40z"/>
<path d="M2590 1370 l0 -40 40 0 40 0 0 40 0 40 -40 0 -40 0 0 -40z"/>
<path d="M2680 1370 l0 -40 75 0 75 0 0 40 0 40 -75 0 -75 0 0 -40z"/>
<path d="M2840 1370 l0 -40 40 0 40 0 0 40 0 40 -40 0 -40 0 0 -40z"/>
<path d="M2930 1370 l0 -40 75 0 75 0 0 40 0 40 -75 0 -75 0 0 -40z"/>
<path d="M3090 1370 l0 -40 40 0 40 0 0 40 0 40 -40 0 -40 0 0 -40z"/>
<path d="M3180 1370 l0 -40 75 0 75 0 0 40 0 40 -75 0 -75 0 0 -40z"/>
<path d="M3340 1370 l0 -40 40 0 40 0 0 40 0 40 -40 0 -40 0 0 -40z"/>
<path d="M3430 1370 l0 -40 75 0 75 0 0 40 0 40 -75 0 -75 0 0 -40z"/>
<path d="M3590 1370 l0 -40 40 0 40 0 0 40 0 40 -40 0 -40 0 0 -40z"/>
<path d="M3680 1370 l0 -40 75 0 75 0 0 40 0 40 -75 0 -75 0 0 -40z"/>
<path d="M3840 1370 l0 -40 40 0 40 0 0 40 0 40 -40 0 -40 0 0 -40z"/>
<path d="M3930 1370 c0 -39 1 -40 35 -40 34 0 35 1 35 40 0 39 -1 40 -35 40
-34 0 -35 -1 -35 -40z"/>
<path d="M0 1245 l0 -75 40 0 40 0 0 75 0 75 -40 0 -40 0 0 -75z"/>
<path d="M90 1245 l0 -75 40 0 40 0 0 75 0 75 -40 0 -40 0 0 -75z"/>
<path d="M180 1245 l0 -75 75 0 75 0 0 75 0 75 -75 0 -75 0 0 -75z"/>
<path d="M340 1245 l0 -75 40 0 40 0 0 75 0 75 -40 0 -40 0 0 -75z"/>
<path d="M430 1245 l0 -75 75 0 75 0 0 75 0 75 -75 0 -75 0 0 -75z"/>
<path d="M590 1245 l0 -75 40 0 40 0 0 75 0 75 -40 0 -40 0 0 -75z"/>
<path d="M680 1245 l0 -75 75 0 75 0 0 75 0 75 -75 0 -75 0 0 -75z"/>
<path d="M840 1245 l0 -75 40 0 40 0 0 75 0 75 -40 0 -40 0 0 -75z"/>
<path d="M930 1245 l0 -75 75 0 75 0 0 75 0 75 -75 0 -75 0 0 -75z"/>
<path d="M1090 1245 l0 -75 40 0 40 0 0 75 0 75 -40 0 -40 0 0 -75z"/>
<path d="M1180 1245 l0 -75 75 0 75 0 0 75 0 75 -75 0 -75 0 0 -75z"/>
<path d="M1340 1245 l0 -75 40 0 40 0 0 75 0 75 -40 0 -40 0 0 -75z"/>
<path d="M1430 1245 l0 -75 75 0 75 0 0 75 0 75 -75 0 -75 0 0 -75z"/>
<path d="M1590 1245 l0 -75 40 0 40 0 0 75 0 75 -40 0 -40 0 0 -75z"/>
<path d="M1680 1245 l0 -75 75 0 75 0 0 75 0 75 -75 0 -75 0 0 -75z"/>
<path d="M1840 1245 l0 -75 40 0 40 0 0 75 0 75 -40 0 -40 0 0 -75z"/>
<path d="M1930 1245 l0 -75 75 0 75 0 0 75 0 75 -75 0 -75 0 0 -75z"/>
<path d="M2090 1245 l0 -75 40 0 40 0 0 75 0 75 -40 0 -40 0 0 -75z"/>
<path d="M2180 1245 l0 -75 75 0 75 0 0 75 0 75 -75 0 -75 0 0 -75z"/>
<path d="M2340 1245 l0 -75 40 0 40 0 0 75 0 75 -40 0 -40 0 0 -75z"/>
<path d="M2430 1245 l0 -75 75 0 75 0 0 75 0 75 -75 0 -75 0 0 -75z"/>
<path d="M2590 1245 l0 -75 40 0 40 0 0 75 0 75 -40 0 -40 0 0 -75z"/>
<path d="M2680 1245 l0 -75 75 0 75 0 0 75 0 75 -75 0 -75 0 0 -75z"/>
<path d="M2840 1245 l0 -75 40 0 40 0 0 75 0 75 -40 0 -40 0 0 -75z"/>
<path d="M2930 1245 l0 -75 75 0 75 0 0 75 0 75 -75 0 -75 0 0 -75z"/>
<path d="M3090 1245 l0 -75 40 0 40 0 0 75 0 75 -40 0 -40 0 0 -75z"/>
<path d="M3180 1245 l0 -75 75 0 75 0 0 75 0 75 -75 0 -75 0 0 -75z"/>
<path d="M3340 1245 l0 -75 40 0 40 0 0 75 0 75 -40 0 -40 0 0 -75z"/>
<path d="M3430 1245 l0 -75 75 0 75 0 0 75 0 75 -75 0 -75 0 0 -75z"/>
<path d="M3590 1245 l0 -75 40 0 40 0 0 75 0 75 -40 0 -40 0 0 -75z"/>
<path d="M3680 1245 l0 -75 75 0 75 0 0 75 0 75 -75 0 -75 0 0 -75z"/>
<path d="M3840 1245 l0 -75 40 0 40 0 0 75 0 75 -40 0 -40 0 0 -75z"/>
<path d="M3930 1245 l0 -75 35 0 35 0 0 75 0 75 -35 0 -35 0 0 -75z"/>
<path d="M0 1120 l0 -40 40 0 40 0 0 40 0 40 -40 0 -40 0 0 -40z"/>
<path d="M90 1120 l0 -40 40 0 40 0 0 40 0 40 -40 0 -40 0 0 -40z"/>
<path d="M180 1120 l0 -40 75 0 75 0 0 40 0 40 -75 0 -75 0 0 -40z"/>
<path d="M340 1120 l0 -40 40 0 40 0 0 40 0 40 -40 0 -40 0 0 -40z"/>
<path d="M430 1120 l0 -40 75 0 75 0 0 40 0 40 -75 0 -75 0 0 -40z"/>
<path d="M590 1120 l0 -40 40 0 40 0 0 40 0 40 -40 0 -40 0 0 -40z"/>
<path d="M680 1120 l0 -40 75 0 75 0 0 40 0 40 -75 0 -75 0 0 -40z"/>
<path d="M840 1120 l0 -40 40 0 40 0 0 40 0 40 -40 0 -40 0 0 -40z"/>
<path d="M930 1120 l0 -40 75 0 75 0 0 40 0 40 -75 0 -75 0 0 -40z"/>
<path d="M1090 1120 l0 -40 40 0 40 0 0 40 0 40 -40 0 -40 0 0 -40z"/>
<path d="M1180 1120 l0 -40 75 0 75 0 0 40 0 40 -75 0 -75 0 0 -40z"/>
<path d="M1340 1120 l0 -40 40 0 40 0 0 40 0 40 -40 0 -40 0 0 -40z"/>
<path d="M1430 1120 l0 -40 75 0 75 0 0 40 0 40 -75 0 -75 0 0 -40z"/>
<path d="M1590 1120 l0 -40 40 0 40 0 0 40 0 40 -40 0 -40 0 0 -40z"/>
<path d="M1680 1120 l0 -40 75 0 75 0 0 40 0 40 -75 0 -75 0 0 -40z"/>
<path d="M1840 1120 l0 -40 40 0 40 0 0 40 0 40 -40 0 -40 0 0 -40z"/>
<path d="M1930 1120 l0 -40 75 0 75 0 0 40 0 40 -75 0 -75 0 0 -40z"/>
<path d="M2090 1120 l0 -40 40 0 40 0 0 40 0 40 -40 0 -40 0 0 -40z"/>
<path d="M2180 1120 l0 -40 75 0 75 0 0 40 0 40 -75 0 -75 0 0 -40z"/>
<path d="M2340 1120 l0 -40 40 0 40 0 0 40 0 40 -40 0 -40 0 0 -40z"/>
<path d="M2430 1120 l0 -40 75 0 75 0 0 40 0 40 -75 0 -75 0 0 -40z"/>
<path d="M2590 1120 l0 -40 40 0 40 0 0 40 0 40 -40 0 -40 0 0 -40z"/>
<path d="M2680 1120 l0 -40 75 0 75 0 0 40 0 40 -75 0 -75 0 0 -40z"/>
<path d="M2840 1120 l0 -40 40 0 40 0 0 40 0 40 -40 0 -40 0 0 -40z"/>
<path d="M2930 1120 l0 -40 75 0 75 0 0 40 0 40 -75 0 -75 0 0 -40z"/>
<path d="M3090 1120 l0 -40 40 0 40 0 0 40 0 40 -40 0 -40 0 0 -40z"/>
<path d="M3180 1120 l0 -40 75 0 75 0 0 40 0 40 -75 0 -75 0 0 -40z"/>
<path d="M3340 1120 l0 -40 40 0 40 0 0 40 0 40 -40 0 -40 0 0 -40z"/>
<path d="M3430 1120 l0 -40 75 0 75 0 0 40 0 40 -75 0 -75 0 0 -40z"/>
<path d="M3590 1120 l0 -40 40 0 40 0 0 40 0 40 -40 0 -40 0 0 -40z"/>
<path d="M3680 1120 l0 -40 75 0 75 0 0 40 0 40 -75 0 -75 0 0 -40z"/>
<path d="M3840 1120 l0 -40 40 0 40 0 0 40 0 40 -40 0 -40 0 0 -40z"/>
<path d="M3930 1120 c0 -39 1 -40 35 -40 34 0 35 1 35 40 0 39 -1 40 -35 40
-34 0 -35 -1 -35 -40z"/>
<path d="M0 995 l0 -75 40 0 40 0 0 75 0 75 -40 0 -40 0 0 -75z"/>
<path d="M90 995 l0 -75 40 0 40 0 0 75 0 75 -40 0 -40 0 0 -75z"/>
<path d="M180 995 l0 -75 75 0 75 0 0 75 0 75 -75 0 -75 0 0 -75z"/>
<path d="M340 995 l0 -75 40 0 40 0 0 75 0 75 -40 0 -40 0 0 -75z"/>
<path d="M430 995 l0 -75 75 0 75 0 0 75 0 75 -75 0 -75 0 0 -75z"/>
<path d="M590 995 l0 -75 40 0 40 0 0 75 0 75 -40 0 -40 0 0 -75z"/>
<path d="M680 995 l0 -75 75 0 75 0 0 75 0 75 -75 0 -75 0 0 -75z"/>
<path d="M840 995 l0 -75 40 0 40 0 0 75 0 75 -40 0 -40 0 0 -75z"/>
<path d="M930 995 l0 -75 75 0 75 0 0 75 0 75 -75 0 -75 0 0 -75z"/>
<path d="M1090 995 l0 -75 40 0 40 0 0 75 0 75 -40 0 -40 0 0 -75z"/>
<path d="M1180 995 l0 -75 75 0 75 0 0 75 0 75 -75 0 -75 0 0 -75z"/>
<path d="M1340 995 l0 -75 40 0 40 0 0 75 0 75 -40 0 -40 0 0 -75z"/>
<path d="M1430 995 l0 -75 75 0 75 0 0 75 0 75 -75 0 -75 0 0 -75z"/>
<path d="M1590 995 l0 -75 40 0 40 0 0 75 0 75 -40 0 -40 0 0 -75z"/>
<path d="M1680 995 l0 -75 75 0 75 0 0 75 0 75 -75 0 -75 0 0 -75z"/>
<path d="M1840 995 l0 -75 40 0 40 0 0 75 0 75 -40 0 -40 0 0 -75z"/>
<path d="M1930 995 l0 -75 75 0 75 0 0 75 0 75 -75 0 -75 0 0 -75z"/>
<path d="M2090 995 l0 -75 40 0 40 0 0 75 0 75 -40 0 -40 0 0 -75z"/>
<path d="M2180 995 l0 -75 75 0 75 0 0 75 0 75 -75 0 -75 0 0 -75z"/>
<path d="M2340 995 l0 -75 40 0 40 0 0 75 0 75 -40 0 -40 0 0 -75z"/>
<path d="M2430 995 l0 -75 75 0 75 0 0 75 0 75 -75 0 -75 0 0 -75z"/>
<path d="M2590 995 l0 -75 40 0 40 0 0 75 0 75 -40 0 -40 0 0 -75z"/>
<path d="M2680 995 l0 -75 75 0 75 0 0 75 0 75 -75 0 -75 0 0 -75z"/>
<path d="M2840 995 l0 -75 40 0 40 0 0 75 0 75 -40 0 -40 0 0 -75z"/>
<path d="M2930 995 l0 -75 75 0 75 0 0 75 0 75 -75 0 -75 0 0 -75z"/>
<path d="M3090 995 l0 -75 40 0 40 0 0 75 0 75 -40 0 -40 0 0 -75z"/>
<path d="M3180 995 l0 -75 75 0 75 0 0 75 0 75 -75 0 -75 0 0 -75z"/>
<path d="M3340 995 l0 -75 40 0 40 0 0 75 0 75 -40 0 -40 0 0 -75z"/>
<path d="M3430 995 l0 -75 75 0 75 0 0 75 0 75 -75 0 -75 0 0 -75z"/>
<path d="M3590 995 l0 -75 40 0 40 0 0 75 0 75 -40 0 -40 0 0 -75z"/>
<path d="M3680 995 l0 -75 75 0 75 0 0 75 0 75 -75 0 -75 0 0 -75z"/>
<path d="M3840 995 l0 -75 40 0 40 0 0 75 0 75 -40 0 -40 0 0 -75z"/>
<path d="M3930 995 l0 -75 35 0 35 0 0 75 0 75 -35 0 -35 0 0 -75z"/>
<path d="M0 870 l0 -40 40 0 40 0 0 40 0 40 -40 0 -40 0 0 -40z"/>
<path d="M90 870 l0 -40 40 0 40 0 0 40 0 40 -40 0 -40 0 0 -40z"/>
<path d="M180 870 l0 -40 75 0 75 0 0 40 0 40 -75 0 -75 0 0 -40z"/>
<path d="M340 870 l0 -40 40 0 40 0 0 40 0 40 -40 0 -40 0 0 -40z"/>
<path d="M430 870 l0 -40 75 0 75 0 0 40 0 40 -75 0 -75 0 0 -40z"/>
<path d="M590 870 l0 -40 40 0 40 0 0 40 0 40 -40 0 -40 0 0 -40z"/>
<path d="M680 870 l0 -40 75 0 75 0 0 40 0 40 -75 0 -75 0 0 -40z"/>
<path d="M840 870 l0 -40 40 0 40 0 0 40 0 40 -40 0 -40 0 0 -40z"/>
<path d="M930 870 l0 -40 75 0 75 0 0 40 0 40 -75 0 -75 0 0 -40z"/>
<path d="M1090 870 l0 -40 40 0 40 0 0 40 0 40 -40 0 -40 0 0 -40z"/>
<path d="M1180 870 l0 -40 75 0 75 0 0 40 0 40 -75 0 -75 0 0 -40z"/>
<path d="M1340 870 l0 -40 40 0 40 0 0 40 0 40 -40 0 -40 0 0 -40z"/>
<path d="M1430 870 l0 -40 75 0 75 0 0 40 0 40 -75 0 -75 0 0 -40z"/>
<path d="M1590 870 l0 -40 40 0 40 0 0 40 0 40 -40 0 -40 0 0 -40z"/>
<path d="M1680 870 l0 -40 75 0 75 0 0 40 0 40 -75 0 -75 0 0 -40z"/>
<path d="M1840 870 l0 -40 40 0 40 0 0 40 0 40 -40 0 -40 0 0 -40z"/>
<path d="M1930 870 l0 -40 75 0 75 0 0 40 0 40 -75 0 -75 0 0 -40z"/>
<path d="M2090 870 l0 -40 40 0 40 0 0 40 0 40 -40 0 -40 0 0 -40z"/>
<path d="M2180 870 l0 -40 75 0 75 0 0 40 0 40 -75 0 -75 0 0 -40z"/>
<path d="M2340 870 l0 -40 40 0 40 0 0 40 0 40 -40 0 -40 0 0 -40z"/>
<path d="M2430 870 l0 -40 75 0 75 0 0 40 0 40 -75 0 -75 0 0 -40z"/>
<path d="M2590 870 l0 -40 40 0 40 0 0 40 0 40 -40 0 -40 0 0 -40z"/>
<path d="M2680 870 l0 -40 75 0 75 0 0 40 0 40 -75 0 -75 0 0 -40z"/>
<path d="M2840 870 l0 -40 40 0 40 0 0 40 0 40 -40 0 -40 0 0 -40z"/>
<path d="M2930 870 l0 -40 75 0 75 0 0 40 0 40 -75 0 -75 0 0 -40z"/>
<path d="M3090 870 l0 -40 40 0 40 0 0 40 0 40 -40 0 -40 0 0 -40z"/>
<path d="M3180 870 l0 -40 75 0 75 0 0 40 0 40 -75 0 -75 0 0 -40z"/>
<path d="M3340 870 l0 -40 40 0 40 0 0 40 0 40 -40 0 -40 0 0 -40z"/>
<path d="M3430 870 l0 -40 75 0 75 0 0 40 0 40 -75 0 -75 0 0 -40z"/>
<path d="M3590 870 l0 -40 40 0 40 0 0 40 0 40 -40 0 -40 0 0 -40z"/>
<path d="M3680 870 l0 -40 75 0 75 0 0 40 0 40 -75 0 -75 0 0 -40z"/>
<path d="M3840 870 l0 -40 40 0 40 0 0 40 0 40 -40 0 -40 0 0 -40z"/>
<path d="M3930 870 c0 -39 1 -40 35 -40 34 0 35 1 35 40 0 39 -1 40 -35 40
-34 0 -35 -1 -35 -40z"/>
<path d="M0 745 l0 -75 40 0 40 0 0 75 0 75 -40 0 -40 0 0 -75z"/>
<path d="M90 745 l0 -75 40 0 40 0 0 75 0 75 -40 0 -40 0 0 -75z"/>
<path d="M180 745 l0 -75 75 0 75 0 0 75 0 75 -75 0 -75 0 0 -75z"/>
<path d="M340 745 l0 -75 40 0 40 0 0 75 0 75 -40 0 -40 0 0 -75z"/>
<path d="M430 745 l0 -75 75 0 75 0 0 75 0 75 -75 0 -75 0 0 -75z"/>
<path d="M590 745 l0 -75 40 0 40 0 0 75 0 75 -40 0 -40 0 0 -75z"/>
<path d="M680 745 l0 -75 75 0 75 0 0 75 0 75 -75 0 -75 0 0 -75z"/>
<path d="M840 745 l0 -75 40 0 40 0 0 75 0 75 -40 0 -40 0 0 -75z"/>
<path d="M930 745 l0 -75 75 0 75 0 0 75 0 75 -75 0 -75 0 0 -75z"/>
<path d="M1090 745 l0 -75 40 0 40 0 0 75 0 75 -40 0 -40 0 0 -75z"/>
<path d="M1180 745 l0 -75 75 0 75 0 0 75 0 75 -75 0 -75 0 0 -75z"/>
<path d="M1340 745 l0 -75 40 0 40 0 0 75 0 75 -40 0 -40 0 0 -75z"/>
<path d="M1430 745 l0 -75 75 0 75 0 0 75 0 75 -75 0 -75 0 0 -75z"/>
<path d="M1590 745 l0 -75 40 0 40 0 0 75 0 75 -40 0 -40 0 0 -75z"/>
<path d="M1680 745 l0 -75 75 0 75 0 0 75 0 75 -75 0 -75 0 0 -75z"/>
<path d="M1840 745 l0 -75 40 0 40 0 0 75 0 75 -40 0 -40 0 0 -75z"/>
<path d="M1930 745 l0 -75 75 0 75 0 0 75 0 75 -75 0 -75 0 0 -75z"/>
<path d="M2090 745 l0 -75 40 0 40 0 0 75 0 75 -40 0 -40 0 0 -75z"/>
<path d="M2180 745 l0 -75 75 0 75 0 0 75 0 75 -75 0 -75 0 0 -75z"/>
<path d="M2340 745 l0 -75 40 0 40 0 0 75 0 75 -40 0 -40 0 0 -75z"/>
<path d="M2430 745 l0 -75 75 0 75 0 0 75 0 75 -75 0 -75 0 0 -75z"/>
<path d="M2590 745 l0 -75 40 0 40 0 0 75 0 75 -40 0 -40 0 0 -75z"/>
<path d="M2680 745 l0 -75 75 0 75 0 0 75 0 75 -75 0 -75 0 0 -75z"/>
<path d="M2840 745 l0 -75 40 0 40 0 0 75 0 75 -40 0 -40 0 0 -75z"/>
<path d="M2930 745 l0 -75 75 0 75 0 0 75 0 75 -75 0 -75 0 0 -75z"/>
<path d="M3090 745 l0 -75 40 0 40 0 0 75 0 75 -40 0 -40 0 0 -75z"/>
<path d="M3180 745 l0 -75 75 0 75 0 0 75 0 75 -75 0 -75 0 0 -75z"/>
<path d="M3340 745 l0 -75 40 0 40 0 0 75 0 75 -40 0 -40 0 0 -75z"/>
<path d="M3430 745 l0 -75 75 0 75 0 0 75 0 75 -75 0 -75 0 0 -75z"/>
<path d="M3590 745 l0 -75 40 0 40 0 0 75 0 75 -40 0 -40 0 0 -75z"/>
<path d="M3680 745 l0 -75 75 0 75 0 0 75 0 75 -75 0 -75 0 0 -75z"/>
<path d="M3840 745 l0 -75 40 0 40 0 0 75 0 75 -40 0 -40 0 0 -75z"/>
<path d="M3930 745 l0 -75 35 0 35 0 0 75 0 75 -35 0 -35 0 0 -75z"/>
<path d="M0 620 l0 -40 40 0 40 0 0 40 0 40 -40 0 -40 0 0 -40z"/>
<path d="M90 620 l0 -40 40 0 40 0 0 40 0 40 -40 0 -40 0 0 -40z"/>
<path d="M180 620 l0 -40 75 0 75 0 0 40 0 40 -75 0 -75 0 0 -40z"/>
<path d="M340 620 l0 -40 40 0 40 0 0 40 0 40 -40 0 -40 0 0 -40z"/>
<path d="M430 620 l0 -40 75 0 75 0 0 40 0 40 -75 0 -75 0 0 -40z"/>
<path d="M590 620 l0 -40 40 0 40 0 0 40 0 40 -40 0 -40 0 0 -40z"/>
<path d="M680 620 l0 -40 75 0 75 0 0 40 0 40 -75 0 -75 0 0 -40z"/>
<path d="M840 620 l0 -40 40 0 40 0 0 40 0 40 -40 0 -40 0 0 -40z"/>
<path d="M930 620 l0 -40 75 0 75 0 0 40 0 40 -75 0 -75 0 0 -40z"/>
<path d="M1090 620 l0 -40 40 0 40 0 0 40 0 40 -40 0 -40 0 0 -40z"/>
<path d="M1180 620 l0 -40 75 0 75 0 0 40 0 40 -75 0 -75 0 0 -40z"/>
<path d="M1340 620 l0 -40 40 0 40 0 0 40 0 40 -40 0 -40 0 0 -40z"/>
<path d="M1430 620 l0 -40 75 0 75 0 0 40 0 40 -75 0 -75 0 0 -40z"/>
<path d="M1590 620 l0 -40 40 0 40 0 0 40 0 40 -40 0 -40 0 0 -40z"/>
<path d="M1680 620 l0 -40 75 0 75 0 0 40 0 40 -75 0 -75 0 0 -40z"/>
<path d="M1840 620 l0 -40 40 0 40 0 0 40 0 40 -40 0 -40 0 0 -40z"/>
<path d="M1930 620 l0 -40 75 0 75 0 0 40 0 40 -75 0 -75 0 0 -40z"/>
<path d="M2090 620 l0 -40 40 0 40 0 0 40 0 40 -40 0 -40 0 0 -40z"/>
<path d="M2180 620 l0 -40 75 0 75 0 0 40 0 40 -75 0 -75 0 0 -40z"/>
<path d="M2340 620 l0 -40 40 0 40 0 0 40 0 40 -40 0 -40 0 0 -40z"/>
<path d="M2430 620 l0 -40 75 0 75 0 0 40 0 40 -75 0 -75 0 0 -40z"/>
<path d="M2590 620 l0 -40 40 0 40 0 0 40 0 40 -40 0 -40 0 0 -40z"/>
<path d="M2680 620 l0 -40 75 0 75 0 0 40 0 40 -75 0 -75 0 0 -40z"/>
<path d="M2840 620 l0 -40 40 0 40 0 0 40 0 40 -40 0 -40 0 0 -40z"/>
<path d="M2930 620 l0 -40 75 0 75 0 0 40 0 40 -75 0 -75 0 0 -40z"/>
<path d="M3090 620 l0 -40 40 0 40 0 0 40 0 40 -40 0 -40 0 0 -40z"/>
<path d="M3180 620 l0 -40 75 0 75 0 0 40 0 40 -75 0 -75 0 0 -40z"/>
<path d="M3340 620 l0 -40 40 0 40 0 0 40 0 40 -40 0 -40 0 0 -40z"/>
<path d="M3430 620 l0 -40 75 0 75 0 0 40 0 40 -75 0 -75 0 0 -40z"/>
<path d="M3590 620 l0 -40 40 0 40 0 0 40 0 40 -40 0 -40 0 0 -40z"/>
<path d="M3680 620 l0 -40 75 0 75 0 0 40 0 40 -75 0 -75 0 0 -40z"/>
<path d="M3840 620 l0 -40 40 0 40 0 0 40 0 40 -40 0 -40 0 0 -40z"/>
<path d="M3930 620 c0 -39 1 -40 35 -40 34 0 35 1 35 40 0 39 -1 40 -35 40
-34 0 -35 -1 -35 -40z"/>
<path d="M0 495 l0 -75 40 0 40 0 0 75 0 75 -40 0 -40 0 0 -75z"/>
<path d="M90 495 l0 -75 40 0 40 0 0 75 0 75 -40 0 -40 0 0 -75z"/>
<path d="M180 495 l0 -75 75 0 75 0 0 75 0 75 -75 0 -75 0 0 -75z"/>
<path d="M340 495 l0 -75 40 0 40 0 0 75 0 75 -40 0 -40 0 0 -75z"/>
<path d="M430 495 l0 -75 75 0 75 0 0 75 0 75 -75 0 -75 0 0 -75z"/>
<path d="M590 495 l0 -75 40 0 40 0 0 75 0 75 -40 0 -40 0 0 -75z"/>
<path d="M680 495 l0 -75 75 0 75 0 0 75 0 75 -75 0 -75 0 0 -75z"/>
<path d="M840 495 l0 -75 40 0 40 0 0 75 0 75 -40 0 -40 0 0 -75z"/>
<path d="M930 495 l0 -75 75 0 75 0 0 75 0 75 -75 0 -75 0 0 -75z"/>
<path d="M1090 495 l0 -75 40 0 40 0 0 75 0 75 -40 0 -40 0 0 -75z"/>
<path d="M1180 495 l0 -75 75 0 75 0 0 75 0 75 -75 0 -75 0 0 -75z"/>
<path d="M1340 495 l0 -75 40 0 40 0 0 75 0 75 -40 0 -40 0 0 -75z"/>
<path d="M1430 495 l0 -75 75 0 75 0 0 75 0 75 -75 0 -75 0 0 -75z"/>
<path d="M1590 495 l0 -75 40 0 40 0 0 75 0 75 -40 0 -40 0 0 -75z"/>
<path d="M1680 495 l0 -75 75 0 75 0 0 75 0 75 -75 0 -75 0 0 -75z"/>
<path d="M1840 495 l0 -75 40 0 40 0 0 75 0 75 -40 0 -40 0 0 -75z"/>
<path d="M1930 495 l0 -75 75 0 75 0 0 75 0 75 -75 0 -75 0 0 -75z"/>
<path d="M2090 495 l0 -75 40 0 40 0 0 75 0 75 -40 0 -40 0 0 -75z"/>
<path d="M2180 495 l0 -75 75 0 75 0 0 75 0 75 -75 0 -75 0 0 -75z"/>
<path d="M2340 495 l0 -75 40 0 40 0 0 75 0 75 -40 0 -40 0 0 -75z"/>
<path d="M2430 495 l0 -75 75 0 75 0 0 75 0 75 -75 0 -75 0 0 -75z"/>
<path d="M2590 495 l0 -75 40 0 40 0 0 75 0 75 -40 0 -40 0 0 -75z"/>
<path d="M2680 495 l0 -75 75 0 75 0 0 75 0 75 -75 0 -75 0 0 -75z"/>
<path d="M2840 495 l0 -75 40 0 40 0 0 75 0 75 -40 0 -40 0 0 -75z"/>
<path d="M2930 495 l0 -75 75 0 75 0 0 75 0 75 -75 0 -75 0 0 -75z"/>
<path d="M3090 495 l0 -75 40 0 40 0 0 75 0 75 -40 0 -40 0 0 -75z"/>
<path d="M3180 495 l0 -75 75 0 75 0 0 75 0 75 -75 0 -75 0 0 -75z"/>
<path d="M3340 495 l0 -75 40 0 40 0 0 75 0 75 -40 0 -40 0 0 -75z"/>
<path d="M3430 495 l0 -75 75 0 75 0 0 75 0 75 -75 0 -75 0 0 -75z"/>
<path d="M3590 495 l0 -75 40 0 40 0 0 75 0 75 -40 0 -40 0 0 -75z"/>
<path d="M3680 495 l0 -75 75 0 75 0 0 75 0 75 -75 0 -75 0 0 -75z"/>
<path d="M3840 495 l0 -75 40 0 40 0 0 75 0 75 -40 0 -40 0 0 -75z"/>
<path d="M3930 495 l0 -75 35 0 35 0 0 75 0 75 -35 0 -35 0 0 -75z"/>
<path d="M0 370 l0 -40 40 0 40 0 0 40 0 40 -40 0 -40 0 0 -40z"/>
<path d="M90 370 l0 -40 40 0 40 0 0 40 0 40 -40 0 -40 0 0 -40z"/>
<path d="M180 370 l0 -40 75 0 75 0 0 40 0 40 -75 0 -75 0 0 -40z"/>
<path d="M340 370 l0 -40 40 0 40 0 0 40 0 40 -40 0 -40 0 0 -40z"/>
<path d="M430 370 l0 -40 75 0 75 0 0 40 0 40 -75 0 -75 0 0 -40z"/>
<path d="M590 370 l0 -40 40 0 40 0 0 40 0 40 -40 0 -40 0 0 -40z"/>
<path d="M680 370 l0 -40 75 0 75 0 0 40 0 40 -75 0 -75 0 0 -40z"/>
<path d="M840 370 l0 -40 40 0 40 0 0 40 0 40 -40 0 -40 0 0 -40z"/>
<path d="M930 370 l0 -40 75 0 75 0 0 40 0 40 -75 0 -75 0 0 -40z"/>
<path d="M1090 370 l0 -40 40 0 40 0 0 40 0 40 -40 0 -40 0 0 -40z"/>
<path d="M1180 370 l0 -40 75 0 75 0 0 40 0 40 -75 0 -75 0 0 -40z"/>
<path d="M1340 370 l0 -40 40 0 40 0 0 40 0 40 -40 0 -40 0 0 -40z"/>
<path d="M1430 370 l0 -40 75 0 75 0 0 40 0 40 -75 0 -75 0 0 -40z"/>
<path d="M1590 370 l0 -40 40 0 40 0 0 40 0 40 -40 0 -40 0 0 -40z"/>
<path d="M1680 370 l0 -40 75 0 75 0 0 40 0 40 -75 0 -75 0 0 -40z"/>
<path d="M1840 370 l0 -40 40 0 40 0 0 40 0 40 -40 0 -40 0 0 -40z"/>
<path d="M1930 370 l0 -40 75 0 75 0 0 40 0 40 -75 0 -75 0 0 -40z"/>
<path d="M2090 370 l0 -40 40 0 40 0 0 40 0 40 -40 0 -40 0 0 -40z"/>
<path d="M2180 370 l0 -40 75 0 75 0 0 40 0 40 -75 0 -75 0 0 -40z"/>
<path d="M2340 370 l0 -40 40 0 40 0 0 40 0 40 -40 0 -40 0 0 -40z"/>
<path d="M2430 370 l0 -40 75 0 75 0 0 40 0 40 -75 0 -75 0 0 -40z"/>
<path d="M2590 370 l0 -40 40 0 40 0 0 40 0 40 -40 0 -40 0 0 -40z"/>
<path d="M2680 370 l0 -40 75 0 75 0 0 40 0 40 -75 0 -75 0 0 -40z"/>
<path d="M2840 370 l0 -40 40 0 40 0 0 40 0 40 -40 0 -40 0 0 -40z"/>
<path d="M2930 370 l0 -40 75 0 75 0 0 40 0 40 -75 0 -75 0 0 -40z"/>
<path d="M3090 370 l0 -40 40 0 40 0 0 40 0 40 -40 0 -40 0 0 -40z"/>
<path d="M3180 370 l0 -40 75 0 75 0 0 40 0 40 -75 0 -75 0 0 -40z"/>
<path d="M3340 370 l0 -40 40 0 40 0 0 40 0 40 -40 0 -40 0 0 -40z"/>
<path d="M3430 370 l0 -40 75 0 75 0 0 40 0 40 -75 0 -75 0 0 -40z"/>
<path d="M3590 370 l0 -40 40 0 40 0 0 40 0 40 -40 0 -40 0 0 -40z"/>
<path d="M3680 370 l0 -40 75 0 75 0 0 40 0 40 -75 0 -75 0 0 -40z"/>
<path d="M3840 370 l0 -40 40 0 40 0 0 40 0 40 -40 0 -40 0 0 -40z"/>
<path d="M3930 370 c0 -39 1 -40 35 -40 34 0 35 1 35 40 0 39 -1 40 -35 40
-34 0 -35 -1 -35 -40z"/>
<path d="M0 245 l0 -75 40 0 40 0 0 75 0 75 -40 0 -40 0 0 -75z"/>
<path d="M90 245 l0 -75 40 0 40 0 0 75 0 75 -40 0 -40 0 0 -75z"/>
<path d="M180 245 l0 -75 75 0 75 0 0 75 0 75 -75 0 -75 0 0 -75z"/>
<path d="M340 245 l0 -75 40 0 40 0 0 75 0 75 -40 0 -40 0 0 -75z"/>
<path d="M430 245 l0 -75 75 0 75 0 0 75 0 75 -75 0 -75 0 0 -75z"/>
<path d="M590 245 l0 -75 40 0 40 0 0 75 0 75 -40 0 -40 0 0 -75z"/>
<path d="M680 245 l0 -75 75 0 75 0 0 75 0 75 -75 0 -75 0 0 -75z"/>
<path d="M840 245 l0 -75 40 0 40 0 0 75 0 75 -40 0 -40 0 0 -75z"/>
<path d="M930 245 l0 -75 75 0 75 0 0 75 0 75 -75 0 -75 0 0 -75z"/>
<path d="M1090 245 l0 -75 40 0 40 0 0 75 0 75 -40 0 -40 0 0 -75z"/>
<path d="M1180 245 l0 -75 75 0 75 0 0 75 0 75 -75 0 -75 0 0 -75z"/>
<path d="M1340 245 l0 -75 40 0 40 0 0 75 0 75 -40 0 -40 0 0 -75z"/>
<path d="M1430 245 l0 -75 75 0 75 0 0 75 0 75 -75 0 -75 0 0 -75z"/>
<path d="M1590 245 l0 -75 40 0 40 0 0 75 0 75 -40 0 -40 0 0 -75z"/>
<path d="M1680 245 l0 -75 75 0 75 0 0 75 0 75 -75 0 -75 0 0 -75z"/>
<path d="M1840 245 l0 -75 40 0 40 0 0 75 0 75 -40 0 -40 0 0 -75z"/>
<path d="M1930 245 l0 -75 75 0 75 0 0 75 0 75 -75 0 -75 0 0 -75z"/>
<path d="M2090 245 l0 -75 40 0 40 0 0 75 0 75 -40 0 -40 0 0 -75z"/>
<path d="M2180 245 l0 -75 75 0 75 0 0 75 0 75 -75 0 -75 0 0 -75z"/>
<path d="M2340 245 l0 -75 40 0 40 0 0 75 0 75 -40 0 -40 0 0 -75z"/>
<path d="M2430 245 l0 -75 75 0 75 0 0 75 0 75 -75 0 -75 0 0 -75z"/>
<path d="M2590 245 l0 -75 40 0 40 0 0 75 0 75 -40 0 -40 0 0 -75z"/>
<path d="M2680 245 l0 -75 75 0 75 0 0 75 0 75 -75 0 -75 0 0 -75z"/>
<path d="M2840 245 l0 -75 40 0 40 0 0 75 0 75 -40 0 -40 0 0 -75z"/>
<path d="M2930 245 l0 -75 75 0 75 0 0 75 0 75 -75 0 -75 0 0 -75z"/>
<path d="M3090 245 l0 -75 40 0 40 0 0 75 0 75 -40 0 -40 0 0 -75z"/>
<path d="M3180 245 l0 -75 75 0 75 0 0 75 0 75 -75 0 -75 0 0 -75z"/>
<path d="M3340 245 l0 -75 40 0 40 0 0 75 0 75 -40 0 -40 0 0 -75z"/>
<path d="M3430 245 l0 -75 75 0 75 0 0 75 0 75 -75 0 -75 0 0 -75z"/>
<path d="M3590 245 l0 -75 40 0 40 0 0 75 0 75 -40 0 -40 0 0 -75z"/>
<path d="M3680 245 l0 -75 75 0 75 0 0 75 0 75 -75 0 -75 0 0 -75z"/>
<path d="M3840 245 l0 -75 40 0 40 0 0 75 0 75 -40 0 -40 0 0 -75z"/>
<path d="M3930 245 l0 -75 35 0 35 0 0 75 0 75 -35 0 -35 0 0 -75z"/>
<path d="M0 120 l0 -40 40 0 40 0 0 40 0 40 -40 0 -40 0 0 -40z"/>
<path d="M90 120 l0 -40 40 0 40 0 0 40 0 40 -40 0 -40 0 0 -40z"/>
<path d="M180 120 l0 -40 75 0 75 0 0 40 0 40 -75 0 -75 0 0 -40z"/>
<path d="M340 120 l0 -40 40 0 40 0 0 40 0 40 -40 0 -40 0 0 -40z"/>
<path d="M430 120 l0 -40 75 0 75 0 0 40 0 40 -75 0 -75 0 0 -40z"/>
<path d="M590 120 l0 -40 40 0 40 0 0 40 0 40 -40 0 -40 0 0 -40z"/>
<path d="M680 120 l0 -40 75 0 75 0 0 40 0 40 -75 0 -75 0 0 -40z"/>
<path d="M840 120 l0 -40 40 0 40 0 0 40 0 40 -40 0 -40 0 0 -40z"/>
<path d="M930 120 l0 -40 75 0 75 0 0 40 0 40 -75 0 -75 0 0 -40z"/>
<path d="M1090 120 l0 -40 40 0 40 0 0 40 0 40 -40 0 -40 0 0 -40z"/>
<path d="M1180 120 l0 -40 75 0 75 0 0 40 0 40 -75 0 -75 0 0 -40z"/>
<path d="M1340 120 l0 -40 40 0 40 0 0 40 0 40 -40 0 -40 0 0 -40z"/>
<path d="M1430 120 l0 -40 75 0 75 0 0 40 0 40 -75 0 -75 0 0 -40z"/>
<path d="M1590 120 l0 -40 40 0 40 0 0 40 0 40 -40 0 -40 0 0 -40z"/>
<path d="M1680 120 l0 -40 75 0 75 0 0 40 0 40 -75 0 -75 0 0 -40z"/>
<path d="M1840 120 l0 -40 40 0 40 0 0 40 0 40 -40 0 -40 0 0 -40z"/>
<path d="M1930 120 l0 -40 75 0 75 0 0 40 0 40 -75 0 -75 0 0 -40z"/>
<path d="M2090 120 l0 -40 40 0 40 0 0 40 0 40 -40 0 -40 0 0 -40z"/>
<path d="M2180 120 l0 -40 75 0 75 0 0 40 0 40 -75 0 -75 0 0 -40z"/>
<path d="M2340 120 l0 -40 40 0 40 0 0 40 0 40 -40 0 -40 0 0 -40z"/>
<path d="M2430 120 l0 -40 75 0 75 0 0 40 0 40 -75 0 -75 0 0 -40z"/>
<path d="M2590 120 l0 -40 40 0 40 0 0 40 0 40 -40 0 -40 0 0 -40z"/>
<path d="M2680 120 l0 -40 75 0 75 0 0 40 0 40 -75 0 -75 0 0 -40z"/>
<path d="M2840 120 l0 -40 40 0 40 0 0 40 0 40 -40 0 -40 0 0 -40z"/>
<path d="M2930 120 l0 -40 75 0 75 0 0 40 0 40 -75 0 -75 0 0 -40z"/>
<path d="M3090 120 l0 -40 40 0 40 0 0 40 0 40 -40 0 -40 0 0 -40z"/>
<path d="M3180 120 l0 -40 75 0 75 0 0 40 0 40 -75 0 -75 0 0 -40z"/>
<path d="M3340 120 l0 -40 40 0 40 0 0 40 0 40 -40 0 -40 0 0 -40z"/>
<path d="M3430 120 l0 -40 75 0 75 0 0 40 0 40 -75 0 -75 0 0 -40z"/>
<path d="M3590 120 l0 -40 40 0 40 0 0 40 0 40 -40 0 -40 0 0 -40z"/>
<path d="M3680 120 l0 -40 75 0 75 0 0 40 0 40 -75 0 -75 0 0 -40z"/>
<path d="M3840 120 l0 -40 40 0 40 0 0 40 0 40 -40 0 -40 0 0 -40z"/>
<path d="M3930 120 c0 -39 1 -40 35 -40 34 0 35 1 35 40 0 39 -1 40 -35 40
-34 0 -35 -1 -35 -40z"/>
<path d="M0 35 c0 -34 1 -35 40 -35 39 0 40 1 40 35 0 34 -1 35 -40 35 -39 0
-40 -1 -40 -35z"/>
<path d="M90 35 c0 -34 1 -35 40 -35 39 0 40 1 40 35 0 34 -1 35 -40 35 -39 0
-40 -1 -40 -35z"/>
<path d="M180 35 l0 -35 75 0 75 0 0 35 0 35 -75 0 -75 0 0 -35z"/>
<path d="M340 35 c0 -34 1 -35 40 -35 39 0 40 1 40 35 0 34 -1 35 -40 35 -39
0 -40 -1 -40 -35z"/>
<path d="M430 35 l0 -35 75 0 75 0 0 35 0 35 -75 0 -75 0 0 -35z"/>
<path d="M590 35 c0 -34 1 -35 40 -35 39 0 40 1 40 35 0 34 -1 35 -40 35 -39
0 -40 -1 -40 -35z"/>
<path d="M680 35 l0 -35 75 0 75 0 0 35 0 35 -75 0 -75 0 0 -35z"/>
<path d="M840 35 c0 -34 1 -35 40 -35 39 0 40 1 40 35 0 34 -1 35 -40 35 -39
0 -40 -1 -40 -35z"/>
<path d="M930 35 l0 -35 75 0 75 0 0 35 0 35 -75 0 -75 0 0 -35z"/>
<path d="M1090 35 c0 -34 1 -35 40 -35 39 0 40 1 40 35 0 34 -1 35 -40 35 -39
0 -40 -1 -40 -35z"/>
<path d="M1180 35 l0 -35 75 0 75 0 0 35 0 35 -75 0 -75 0 0 -35z"/>
<path d="M1340 35 c0 -34 1 -35 40 -35 39 0 40 1 40 35 0 34 -1 35 -40 35 -39
0 -40 -1 -40 -35z"/>
<path d="M1430 35 l0 -35 75 0 75 0 0 35 0 35 -75 0 -75 0 0 -35z"/>
<path d="M1590 35 c0 -34 1 -35 40 -35 39 0 40 1 40 35 0 34 -1 35 -40 35 -39
0 -40 -1 -40 -35z"/>
<path d="M1680 35 l0 -35 75 0 75 0 0 35 0 35 -75 0 -75 0 0 -35z"/>
<path d="M1840 35 c0 -34 1 -35 40 -35 39 0 40 1 40 35 0 34 -1 35 -40 35 -39
0 -40 -1 -40 -35z"/>
<path d="M1930 35 l0 -35 75 0 75 0 0 35 0 35 -75 0 -75 0 0 -35z"/>
<path d="M2090 35 c0 -34 1 -35 40 -35 39 0 40 1 40 35 0 34 -1 35 -40 35 -39
0 -40 -1 -40 -35z"/>
<path d="M2180 35 l0 -35 75 0 75 0 0 35 0 35 -75 0 -75 0 0 -35z"/>
<path d="M2340 35 c0 -34 1 -35 40 -35 39 0 40 1 40 35 0 34 -1 35 -40 35 -39
0 -40 -1 -40 -35z"/>
<path d="M2430 35 l0 -35 75 0 75 0 0 35 0 35 -75 0 -75 0 0 -35z"/>
<path d="M2590 35 c0 -34 1 -35 40 -35 39 0 40 1 40 35 0 34 -1 35 -40 35 -39
0 -40 -1 -40 -35z"/>
<path d="M2680 35 l0 -35 75 0 75 0 0 35 0 35 -75 0 -75 0 0 -35z"/>
<path d="M2840 35 c0 -34 1 -35 40 -35 39 0 40 1 40 35 0 34 -1 35 -40 35 -39
0 -40 -1 -40 -35z"/>
<path d="M2930 35 l0 -35 75 0 75 0 0 35 0 35 -75 0 -75 0 0 -35z"/>
<path d="M3090 35 c0 -34 1 -35 40 -35 39 0 40 1 40 35 0 34 -1 35 -40 35 -39
0 -40 -1 -40 -35z"/>
<path d="M3180 35 l0 -35 75 0 75 0 0 35 0 35 -75 0 -75 0 0 -35z"/>
<path d="M3340 35 c0 -34 1 -35 40 -35 39 0 40 1 40 35 0 34 -1 35 -40 35 -39
0 -40 -1 -40 -35z"/>
<path d="M3430 35 l0 -35 75 0 75 0 0 35 0 35 -75 0 -75 0 0 -35z"/>
<path d="M3590 35 c0 -34 1 -35 40 -35 39 0 40 1 40 35 0 34 -1 35 -40 35 -39
0 -40 -1 -40 -35z"/>
<path d="M3680 35 l0 -35 75 0 75 0 0 35 0 35 -75 0 -75 0 0 -35z"/>
<path d="M3840 35 c0 -34 1 -35 40 -35 39 0 40 1 40 35 0 34 -1 35 -40 35 -39
0 -40 -1 -40 -35z"/>
<path d="M3930 35 c0 -33 2 -35 35 -35 33 0 35 2 35 35 0 33 -2 35 -35 35 -33
0 -35 -2 -35 -35z"/>
</g>
</svg>
